<?xml version="1.0" encoding="UTF-8"?>
<svg width="1254" height="1254" viewBox="0 0 1254 1254" xmlns="http://www.w3.org/2000/svg" role="img" aria-labelledby="title desc">
  <title id="title">LITRA preserved outline gradient logo</title>
  <desc id="desc">The original traced LITRA outline is preserved exactly. Color, glow, and highlights are applied only through the same SVG path, gradients, filters, and clipping.</desc>

  <defs>
    <linearGradient id="mainGradient" x1="260" y1="180" x2="950" y2="1050" gradientUnits="userSpaceOnUse">
      <stop offset="0" stop-color="#F72DDA"/>
      <stop offset="0.30" stop-color="#7A35FF"/>
      <stop offset="0.60" stop-color="#1E58FF"/>
      <stop offset="0.82" stop-color="#0A9DF2"/>
      <stop offset="1" stop-color="#18DCD7"/>
    </linearGradient>

    <linearGradient id="subtleGloss" x1="250" y1="120" x2="760" y2="760" gradientUnits="userSpaceOnUse">
      <stop offset="0" stop-color="#FFFFFF" stop-opacity="0.38"/>
      <stop offset="0.28" stop-color="#FFFFFF" stop-opacity="0.16"/>
      <stop offset="0.58" stop-color="#FFFFFF" stop-opacity="0.04"/>
      <stop offset="1" stop-color="#FFFFFF" stop-opacity="0"/>
    </linearGradient>

    <radialGradient id="centerGlow" cx="0" cy="0" r="1" gradientUnits="userSpaceOnUse" gradientTransform="translate(610 585) scale(360)">
      <stop offset="0" stop-color="#FFFFFF" stop-opacity="0.40"/>
      <stop offset="0.18" stop-color="#FFD7FF" stop-opacity="0.25"/>
      <stop offset="0.48" stop-color="#8A5CFF" stop-opacity="0.12"/>
      <stop offset="1" stop-color="#FFFFFF" stop-opacity="0"/>
    </radialGradient>

    <filter id="outerGlow" x="-18%" y="-18%" width="136%" height="136%">
      <feGaussianBlur stdDeviation="18" result="blur"/>
      <feColorMatrix in="blur" type="matrix"
        values="
          0.44 0    0    0 0.10
          0    0.20 0    0 0.12
          0    0    1.00 0 0.35
          0    0    0    0.55 0"
        result="coloredBlur"/>
      <feMerge>
        <feMergeNode in="coloredBlur"/>
      </feMerge>
    </filter>

    <filter id="softShadow" x="-18%" y="-18%" width="136%" height="136%">
      <feDropShadow dx="0" dy="18" stdDeviation="20" flood-color="#202A9A" flood-opacity="0.18"/>
    </filter>

    <clipPath id="logoClip">
      <path d="M 434.21 166.52 C 431.56 166.70, 426.72 167.19, 424.13 167.54 C 421.55 167.89, 416.85 168.72, 414.32 169.22 C 411.80 169.73, 407.20 170.79, 404.74 171.44 C 402.27 172.08, 397.78 173.41, 395.37 174.18 C 392.96 174.96, 388.55 176.49, 386.19 177.38 C 383.82 178.26, 379.51 180.02, 377.19 181.01 C 374.86 182.00, 370.61 183.91, 368.33 185.00 C 366.05 186.09, 361.87 188.18, 359.64 189.38 C 357.41 190.59, 353.34 192.93, 351.16 194.26 C 348.98 195.59, 345.00 198.17, 342.87 199.62 C 340.74 201.08, 336.86 203.88, 334.78 205.44 C 332.70 207.01, 328.89 209.98, 326.85 211.67 C 324.82 213.35, 321.11 216.58, 319.14 218.38 C 317.16 220.19, 313.57 223.66, 311.66 225.56 C 309.76 227.47, 306.29 231.06, 304.48 233.04 C 302.67 235.01, 299.45 238.72, 297.77 240.75 C 296.08 242.79, 293.10 246.60, 291.54 248.68 C 289.97 250.76, 287.16 254.64, 285.70 256.76 C 284.23 258.89, 281.63 262.85, 280.27 265.02 C 278.90 267.19, 276.48 271.22, 275.22 273.43 C 273.96 275.64, 271.72 279.76, 270.58 282.02 C 269.43 284.27, 267.45 288.49, 266.41 290.80 C 265.38 293.10, 263.57 297.39, 262.63 299.74 C 261.70 302.08, 260.06 306.45, 259.22 308.83 C 258.38 311.21, 256.90 315.64, 256.16 318.07 C 255.42 320.49, 254.12 325.00, 253.52 327.48 C 252.91 329.96, 251.96 334.61, 251.52 337.16 C 251.08 339.71, 250.45 344.49, 250.14 347.09 C 249.82 349.69, 249.34 354.53, 249.12 357.17 C 248.89 359.81, 248.54 364.71, 248.41 367.38 C 248.27 370.06, 248.15 375.05, 248.10 377.76 C 248.05 380.47, 248.03 385.51, 248.01 388.23 C 248.00 390.96, 248.00 396.00, 248.00 398.73 C 248.00 401.46, 248.00 406.50, 248.00 409.24 C 248.00 411.97, 248.00 417.01, 248.00 419.74 C 248.00 422.47, 248.00 427.52, 248.00 430.25 C 248.00 432.98, 248.00 438.02, 248.00 440.75 C 248.00 443.48, 248.00 411.65, 248.00 451.26 C 248.00 490.86, 248.00 705.80, 248.00 745.41 C 248.00 785.02, 248.00 753.18, 248.00 755.92 C 248.00 758.65, 248.00 763.69, 248.00 766.42 C 248.00 769.15, 248.00 774.19, 248.00 776.93 C 248.00 779.66, 248.00 784.70, 248.00 787.43 C 248.00 790.16, 248.00 795.20, 247.99 797.93 C 247.98 800.66, 247.96 805.69, 247.93 808.40 C 247.90 811.11, 247.81 816.10, 247.76 818.78 C 247.71 821.46, 247.57 826.36, 247.54 829.01 C 247.50 831.65, 247.50 836.51, 247.47 839.16 C 247.43 841.81, 247.29 846.71, 247.25 849.38 C 247.22 852.06, 247.15 857.04, 247.16 859.73 C 247.18 862.42, 247.29 867.40, 247.40 870.08 C 247.51 872.75, 247.85 877.66, 248.02 880.32 C 248.19 882.98, 248.54 887.87, 248.73 890.53 C 248.92 893.18, 249.20 898.11, 249.45 900.73 C 249.71 903.36, 250.27 908.17, 250.69 910.73 C 251.10 913.29, 252.09 917.92, 252.66 920.41 C 253.24 922.91, 254.42 927.46, 255.10 929.91 C 255.77 932.36, 257.09 936.86, 257.86 939.27 C 258.63 941.69, 260.15 946.10, 261.02 948.47 C 261.89 950.84, 263.56 955.19, 264.55 957.51 C 265.54 959.83, 267.51 964.06, 268.63 966.33 C 269.74 968.60, 271.91 972.74, 273.12 974.96 C 274.33 977.19, 276.63 981.27, 277.94 983.43 C 279.24 985.60, 281.75 989.54, 283.16 991.64 C 284.57 993.74, 287.28 997.54, 288.81 999.59 C 290.34 1001.64, 293.27 1005.40, 294.94 1007.42 C 296.60 1009.43, 299.82 1013.13, 301.63 1015.10 C 303.43 1017.06, 306.91 1020.64, 308.82 1022.52 C 310.74 1024.40, 314.37 1027.79, 316.36 1029.54 C 318.36 1031.29, 322.14 1034.35, 324.19 1035.98 C 326.25 1037.60, 330.10 1040.49, 332.20 1042.01 C 334.30 1043.53, 338.21 1046.27, 340.35 1047.69 C 342.50 1049.11, 346.51 1051.59, 348.70 1052.91 C 350.88 1054.22, 354.96 1056.56, 357.18 1057.78 C 359.41 1059.00, 363.55 1061.17, 365.83 1062.27 C 368.10 1063.37, 372.36 1065.28, 374.69 1066.25 C 377.01 1067.22, 381.37 1068.89, 383.74 1069.75 C 386.12 1070.61, 390.54 1072.10, 392.96 1072.85 C 395.38 1073.61, 399.88 1074.93, 402.34 1075.57 C 404.81 1076.22, 409.41 1077.29, 411.92 1077.81 C 414.44 1078.33, 419.13 1079.18, 421.69 1079.58 C 424.26 1079.98, 429.05 1080.59, 431.66 1080.89 C 434.26 1081.19, 439.11 1081.67, 441.75 1081.89 C 444.39 1082.11, 449.28 1082.46, 451.96 1082.59 C 454.64 1082.73, 459.63 1082.85, 462.34 1082.90 C 465.05 1082.95, 470.08 1082.97, 472.81 1082.99 C 475.53 1083.00, 480.58 1083.00, 483.31 1083.00 C 486.04 1083.00, 491.08 1083.00, 493.81 1083.00 C 496.54 1083.00, 501.59 1083.00, 504.32 1083.00 C 507.05 1083.00, 512.09 1083.00, 514.82 1083.00 C 517.56 1083.00, 513.04 1083.00, 525.33 1083.00 C 537.62 1083.00, 597.08 1083.00, 609.37 1083.00 C 621.66 1083.00, 617.15 1083.00, 619.88 1083.00 C 622.61 1083.00, 627.65 1083.00, 630.37 1083.00 C 633.09 1083.00, 638.12 1083.00, 640.81 1083.00 C 643.50 1083.00, 648.44 1083.00, 651.06 1083.00 C 653.68 1083.00, 658.43 1083.00, 660.99 1082.99 C 663.54 1082.98, 668.20 1082.97, 670.71 1082.93 C 673.22 1082.90, 677.83 1082.81, 680.33 1082.74 C 682.83 1082.67, 687.40 1082.48, 689.92 1082.40 C 692.44 1082.33, 697.13 1082.22, 699.72 1082.20 C 702.30 1082.18, 707.17 1082.23, 709.80 1082.26 C 712.43 1082.28, 717.32 1082.39, 719.96 1082.39 C 722.61 1082.38, 727.50 1082.27, 730.15 1082.23 C 732.80 1082.19, 737.70 1082.10, 740.34 1082.07 C 742.99 1082.04, 747.84 1082.02, 750.50 1082.01 C 753.16 1082.00, 758.11 1082.00, 760.81 1082.00 C 763.51 1082.00, 768.53 1082.00, 771.26 1082.00 C 773.98 1082.00, 779.02 1082.00, 781.75 1082.00 C 784.48 1082.00, 789.53 1082.00, 792.26 1082.00 C 794.99 1082.00, 800.03 1082.00, 802.76 1082.00 C 805.49 1082.00, 810.54 1082.00, 813.27 1082.00 C 816.00 1082.00, 821.04 1082.00, 823.77 1082.00 C 826.50 1082.00, 831.55 1082.00, 834.27 1082.00 C 836.99 1082.00, 842.02 1082.00, 844.72 1082.00 C 847.42 1082.00, 852.37 1082.00, 855.04 1082.01 C 857.70 1082.01, 862.56 1082.01, 865.23 1082.01 C 867.89 1082.01, 872.84 1082.01, 875.54 1082.00 C 878.24 1082.00, 883.27 1082.00, 885.98 1081.99 C 888.70 1081.97, 893.73 1081.95, 896.44 1081.89 C 899.14 1081.82, 904.12 1081.68, 906.77 1081.48 C 909.43 1081.29, 914.26 1080.79, 916.83 1080.40 C 919.40 1080.01, 924.05 1079.07, 926.54 1078.47 C 929.02 1077.86, 933.52 1076.55, 935.92 1075.77 C 938.33 1074.99, 942.72 1073.41, 945.06 1072.46 C 947.39 1071.51, 951.64 1069.58, 953.90 1068.44 C 956.16 1067.30, 960.26 1065.02, 962.44 1063.70 C 964.63 1062.38, 968.59 1059.79, 970.70 1058.27 C 972.80 1056.75, 976.59 1053.74, 978.61 1052.04 C 980.63 1050.34, 984.30 1047.05, 986.23 1045.21 C 988.16 1043.37, 991.66 1039.86, 993.47 1037.90 C 995.27 1035.95, 998.47 1032.25, 1000.10 1030.19 C 1001.72 1028.14, 1004.54 1024.27, 1005.96 1022.13 C 1007.38 1019.98, 1009.80 1015.94, 1011.05 1013.73 C 1012.30 1011.51, 1014.48 1007.37, 1015.58 1005.10 C 1016.68 1002.82, 1018.57 998.56, 1019.50 996.22 C 1020.44 993.88, 1022.01 989.48, 1022.79 987.08 C 1023.58 984.67, 1024.91 980.18, 1025.56 977.72 C 1026.21 975.25, 1027.27 970.65, 1027.77 968.13 C 1028.27 965.60, 1029.07 960.89, 1029.41 958.30 C 1029.74 955.72, 1030.19 950.85, 1030.33 948.22 C 1030.47 945.59, 1030.62 940.63, 1030.50 938.06 C 1030.38 935.49, 1029.83 930.88, 1029.38 928.47 C 1028.94 926.05, 1028.50 921.06, 1027.09 919.48 C 1025.67 917.90, 1020.81 917.04, 1018.52 916.30 C 1016.22 915.56, 1011.85 914.41, 1009.43 913.80 C 1007.01 913.19, 1002.35 912.24, 999.89 911.62 C 997.42 911.00, 992.89 909.76, 990.46 909.02 C 988.04 908.28, 983.61 906.80, 981.25 905.91 C 978.88 905.03, 974.56 903.28, 972.27 902.22 C 969.98 901.15, 965.84 898.98, 963.63 897.72 C 961.42 896.46, 957.41 893.97, 955.28 892.52 C 953.15 891.07, 949.29 888.22, 947.24 886.58 C 945.20 884.94, 941.50 881.73, 939.55 879.92 C 937.61 878.11, 934.11 874.60, 932.30 872.66 C 930.49 870.71, 927.29 867.01, 925.67 864.95 C 924.05 862.90, 921.24 859.02, 919.83 856.87 C 918.43 854.73, 916.05 850.67, 914.86 848.43 C 913.66 846.20, 911.62 842.00, 910.61 839.69 C 909.60 837.37, 907.94 833.02, 907.10 830.63 C 906.27 828.25, 904.87 823.78, 904.20 821.33 C 903.53 818.88, 902.40 814.30, 901.94 811.77 C 901.49 809.23, 900.89 804.45, 900.69 801.84 C 900.49 799.22, 900.42 794.29, 900.40 791.67 C 900.38 789.05, 900.62 784.18, 900.56 781.68 C 900.49 779.19, 900.43 774.67, 899.92 772.46 C 899.42 770.26, 897.92 766.52, 896.67 764.72 C 895.43 762.92, 892.20 760.09, 890.34 758.63 C 888.48 757.18, 884.49 754.83, 882.36 753.55 C 880.22 752.26, 876.10 750.01, 873.90 748.76 C 871.69 747.51, 867.60 745.20, 865.40 743.94 C 863.19 742.67, 859.12 740.32, 856.91 739.06 C 854.71 737.79, 850.63 735.45, 848.43 734.18 C 846.22 732.90, 842.17 730.53, 839.96 729.27 C 837.75 728.01, 833.65 725.72, 831.43 724.48 C 829.22 723.24, 825.11 720.98, 822.89 719.74 C 820.68 718.49, 816.60 716.17, 814.39 714.90 C 812.18 713.63, 808.13 711.25, 805.93 709.97 C 803.73 708.68, 799.67 706.30, 797.47 705.02 C 795.27 703.74, 791.20 701.39, 789.00 700.12 C 786.79 698.85, 782.71 696.52, 780.51 695.25 C 778.30 693.98, 774.24 691.60, 772.04 690.34 C 769.83 689.08, 765.74 686.78, 763.53 685.53 C 761.31 684.27, 757.22 681.98, 755.01 680.71 C 752.81 679.45, 748.75 677.07, 746.54 675.80 C 744.34 674.53, 740.26 672.19, 738.06 670.92 C 735.85 669.65, 731.78 667.31, 729.58 666.04 C 727.37 664.77, 723.29 662.44, 721.08 661.18 C 718.88 659.91, 714.80 657.59, 712.59 656.32 C 710.38 655.05, 706.32 652.68, 704.11 651.42 C 701.91 650.16, 697.81 647.87, 695.60 646.62 C 693.38 645.38, 689.28 643.11, 687.06 641.86 C 684.85 640.61, 680.77 638.28, 678.56 637.02 C 676.35 635.76, 672.27 633.43, 670.07 632.18 C 667.86 630.94, 663.77 628.61, 661.59 627.45 C 659.41 626.29, 655.42 624.27, 653.28 623.27 C 651.15 622.27, 647.01 619.97, 645.17 619.78 C 643.33 619.58, 639.90 620.60, 639.13 621.78 C 638.37 622.97, 638.58 626.94, 639.25 628.88 C 639.92 630.82, 642.90 634.63, 644.27 636.67 C 645.64 638.72, 648.28 642.55, 649.79 644.62 C 651.30 646.68, 654.27 650.50, 655.88 652.56 C 657.49 654.62, 660.54 658.40, 662.16 660.46 C 663.79 662.52, 666.77 666.33, 668.38 668.39 C 669.99 670.45, 672.96 674.27, 674.58 676.33 C 676.21 678.39, 679.24 682.17, 680.87 684.23 C 682.50 686.29, 685.49 690.09, 687.11 692.15 C 688.73 694.21, 691.72 698.01, 693.35 700.07 C 694.98 702.13, 698.03 705.91, 699.66 707.96 C 701.28 710.02, 704.24 713.84, 705.85 715.91 C 707.45 717.97, 710.37 721.81, 711.97 723.87 C 713.57 725.94, 716.54 729.75, 718.17 731.81 C 719.79 733.87, 722.82 737.66, 724.44 739.72 C 726.06 741.78, 729.03 745.59, 730.63 747.66 C 732.24 749.73, 735.18 753.55, 736.79 755.62 C 738.40 757.68, 741.40 761.48, 743.03 763.52 C 744.67 765.56, 747.69 769.36, 749.36 771.31 C 751.04 773.25, 754.11 776.88, 755.92 778.50 C 757.73 780.13, 761.22 782.78, 763.28 783.83 C 765.34 784.88, 769.52 785.86, 771.77 786.59 C 774.01 787.31, 778.41 788.36, 780.55 789.37 C 782.68 790.38, 786.52 792.75, 788.21 794.35 C 789.90 795.94, 792.57 799.58, 793.55 801.67 C 794.53 803.76, 795.63 808.13, 795.74 810.44 C 795.86 812.74, 795.21 817.22, 794.44 819.39 C 793.66 821.57, 791.34 825.45, 789.80 827.18 C 788.26 828.90, 784.66 831.65, 782.61 832.66 C 780.55 833.67, 776.25 834.79, 774.00 834.93 C 771.74 835.07, 767.41 834.50, 765.29 833.77 C 763.16 833.04, 759.36 830.82, 757.67 829.30 C 755.98 827.79, 753.33 824.20, 752.29 822.12 C 751.26 820.04, 750.15 815.66, 749.73 813.31 C 749.31 810.96, 749.31 806.41, 749.06 804.05 C 748.81 801.69, 748.45 797.40, 747.79 795.16 C 747.14 792.92, 745.19 788.94, 744.00 786.80 C 742.80 784.66, 740.05 780.79, 738.57 778.70 C 737.10 776.60, 734.21 772.75, 732.66 770.67 C 731.11 768.58, 728.21 764.74, 726.64 762.66 C 725.08 760.58, 722.18 756.73, 720.59 754.66 C 719.00 752.59, 716.04 748.77, 714.43 746.71 C 712.81 744.64, 709.78 740.86, 708.16 738.80 C 706.54 736.74, 703.56 732.93, 701.97 730.86 C 700.37 728.79, 697.47 724.95, 695.89 722.87 C 694.32 720.79, 691.43 716.94, 689.86 714.86 C 688.30 712.78, 685.41 708.93, 683.85 706.85 C 682.28 704.76, 679.39 700.92, 677.82 698.84 C 676.25 696.76, 673.35 692.91, 671.76 690.84 C 670.17 688.77, 667.21 684.96, 665.59 682.89 C 663.97 680.83, 660.92 677.05, 659.30 674.99 C 657.68 672.93, 654.72 669.12, 653.13 667.05 C 651.53 664.97, 648.64 661.13, 647.06 659.06 C 645.48 657.00, 642.59 653.14, 641.00 651.16 C 639.41 649.18, 636.42 645.67, 634.81 643.83 C 633.21 642.00, 630.42 638.01, 628.67 637.04 C 626.91 636.07, 622.62 635.67, 621.29 636.38 C 619.96 637.09, 618.60 640.53, 618.43 642.48 C 618.26 644.43, 619.47 649.03, 619.95 651.36 C 620.44 653.70, 621.51 658.07, 622.16 660.46 C 622.81 662.85, 624.22 667.32, 624.94 669.75 C 625.65 672.17, 626.99 676.66, 627.68 679.11 C 628.37 681.55, 629.58 686.10, 630.25 688.55 C 630.93 691.00, 632.19 695.52, 632.87 697.97 C 633.55 700.42, 634.79 704.95, 635.48 707.39 C 636.17 709.84, 637.45 714.35, 638.16 716.79 C 638.88 719.22, 640.24 723.70, 640.96 726.13 C 641.68 728.57, 643.01 733.06, 643.70 735.50 C 644.40 737.95, 645.61 742.49, 646.29 744.94 C 646.98 747.38, 648.26 751.89, 648.95 754.34 C 649.65 756.78, 650.94 761.29, 651.63 763.73 C 652.33 766.18, 653.59 770.70, 654.29 773.14 C 654.99 775.58, 656.29 780.08, 656.99 782.53 C 657.68 784.97, 658.97 789.48, 659.65 791.93 C 660.33 794.38, 661.54 798.92, 662.21 801.37 C 662.89 803.83, 664.15 808.35, 664.83 810.80 C 665.50 813.25, 666.73 817.78, 667.41 820.23 C 668.09 822.68, 669.37 827.20, 670.05 829.64 C 670.74 832.09, 672.02 836.60, 672.70 839.05 C 673.38 841.50, 674.60 846.04, 675.29 848.48 C 675.98 850.93, 677.29 855.43, 678.00 857.87 C 678.70 860.31, 680.01 864.81, 680.70 867.25 C 681.40 869.69, 682.60 874.23, 683.34 876.62 C 684.08 879.00, 685.44 883.43, 686.40 885.60 C 687.36 887.76, 689.29 891.60, 690.72 893.27 C 692.15 894.95, 695.40 897.39, 697.38 898.49 C 699.36 899.59, 703.64 900.94, 705.96 901.71 C 708.28 902.48, 712.82 903.66, 715.22 904.41 C 717.62 905.16, 722.06 906.61, 724.42 907.49 C 726.79 908.38, 731.09 910.17, 733.39 911.20 C 735.70 912.22, 739.91 914.24, 742.15 915.41 C 744.40 916.57, 748.50 918.86, 750.69 920.16 C 752.88 921.47, 756.87 924.02, 759.00 925.46 C 761.14 926.90, 765.03 929.68, 767.11 931.25 C 769.19 932.81, 772.99 935.81, 775.03 937.50 C 777.06 939.18, 780.76 942.42, 782.73 944.23 C 784.71 946.05, 788.30 949.52, 790.21 951.42 C 792.12 953.32, 795.60 956.92, 797.42 958.88 C 799.25 960.85, 802.53 964.53, 804.26 966.55 C 805.99 968.56, 809.08 972.32, 810.70 974.38 C 812.32 976.44, 815.21 980.29, 816.72 982.40 C 818.24 984.50, 820.93 988.43, 822.35 990.57 C 823.78 992.71, 826.33 996.70, 827.69 998.87 C 829.04 1001.04, 831.48 1005.07, 832.75 1007.27 C 834.02 1009.47, 836.29 1013.59, 837.44 1015.79 C 838.59 1017.99, 840.56 1022.08, 841.58 1024.23 C 842.59 1026.37, 844.67 1030.49, 845.27 1032.30 C 845.87 1034.11, 846.65 1038.15, 846.19 1038.11 C 845.73 1038.08, 842.97 1033.68, 841.74 1032.00 C 840.52 1030.32, 838.16 1027.10, 836.78 1025.19 C 835.40 1023.28, 832.62 1019.37, 831.11 1017.30 C 829.60 1015.23, 826.73 1011.36, 825.15 1009.29 C 823.57 1007.22, 820.60 1003.41, 818.93 1001.37 C 817.27 999.33, 814.11 995.61, 812.35 993.63 C 810.59 991.65, 807.26 988.06, 805.40 986.16 C 803.54 984.26, 799.98 980.84, 798.04 979.02 C 796.09 977.20, 792.43 973.89, 790.42 972.17 C 788.40 970.45, 784.62 967.41, 782.56 965.80 C 780.49 964.20, 776.63 961.35, 774.52 959.86 C 772.40 958.36, 768.47 955.69, 766.31 954.30 C 764.16 952.91, 760.14 950.44, 757.94 949.15 C 755.74 947.86, 751.66 945.55, 749.42 944.36 C 747.18 943.18, 743.00 941.10, 740.71 940.02 C 738.43 938.93, 734.18 937.03, 731.85 936.04 C 729.53 935.05, 725.22 933.30, 722.85 932.42 C 720.48 931.55, 716.05 930.06, 713.63 929.32 C 711.20 928.59, 706.66 927.37, 704.17 926.78 C 701.68 926.19, 697.03 925.26, 694.49 924.81 C 691.94 924.35, 687.20 923.63, 684.61 923.28 C 682.02 922.94, 677.20 922.40, 674.57 922.16 C 671.94 921.91, 667.05 921.55, 664.37 921.41 C 661.70 921.28, 656.71 921.15, 654.00 921.10 C 651.29 921.05, 646.25 921.03, 643.53 921.01 C 640.80 921.00, 635.76 921.00, 633.03 921.00 C 630.30 921.00, 625.26 921.00, 622.52 921.00 C 619.79 921.00, 614.75 921.00, 612.02 921.00 C 609.29 921.00, 604.24 921.00, 601.51 921.00 C 598.78 921.00, 597.84 921.00, 591.01 921.00 C 584.18 921.00, 555.81 921.00, 548.99 921.00 C 542.16 921.00, 541.21 921.00, 538.48 921.00 C 535.75 921.00, 530.71 921.00, 527.97 921.00 C 525.24 921.00, 520.20 921.00, 517.47 921.00 C 514.74 921.00, 509.70 921.00, 506.96 921.00 C 504.23 921.00, 499.19 921.00, 496.47 920.98 C 493.74 920.97, 488.71 920.95, 486.01 920.87 C 483.30 920.80, 478.33 920.64, 475.69 920.40 C 473.06 920.17, 468.27 919.57, 465.74 919.07 C 463.21 918.58, 458.67 917.38, 456.25 916.61 C 453.84 915.85, 449.48 914.19, 447.18 913.16 C 444.87 912.13, 440.72 909.99, 438.53 908.70 C 436.34 907.41, 432.40 904.77, 430.36 903.21 C 428.31 901.65, 424.66 898.48, 422.80 896.66 C 420.94 894.85, 417.67 891.25, 416.02 889.25 C 414.37 887.25, 411.50 883.40, 410.09 881.27 C 408.68 879.13, 406.30 875.07, 405.17 872.81 C 404.05 870.55, 402.27 866.24, 401.41 863.86 C 400.55 861.49, 399.19 857.01, 398.57 854.54 C 397.94 852.06, 397.00 847.41, 396.60 844.84 C 396.21 842.28, 395.71 837.44, 395.52 834.79 C 395.32 832.14, 395.18 827.15, 395.11 824.45 C 395.05 821.75, 395.03 816.71, 395.02 813.98 C 395.00 811.26, 395.00 806.22, 395.00 803.49 C 395.00 800.75, 395.00 795.71, 395.00 792.98 C 395.00 790.25, 395.00 785.21, 395.00 782.48 C 395.00 779.74, 395.00 774.70, 395.00 771.97 C 395.00 769.24, 395.00 768.29, 395.00 761.46 C 395.00 754.64, 395.00 726.27, 395.00 719.44 C 395.00 712.61, 395.00 711.67, 395.00 708.94 C 395.00 706.21, 395.00 718.92, 395.00 698.43 C 395.00 677.95, 395.00 571.84, 395.00 551.36 C 395.00 530.87, 395.00 543.58, 395.00 540.85 C 395.00 538.12, 395.00 533.08, 395.00 530.34 C 395.00 527.61, 395.00 522.57, 395.00 519.84 C 395.00 517.11, 395.00 512.07, 395.00 509.33 C 395.00 506.60, 395.00 501.56, 395.00 498.83 C 395.00 496.10, 395.00 491.05, 395.00 488.32 C 395.00 485.59, 395.00 480.55, 395.00 477.82 C 395.00 475.09, 395.00 470.04, 395.00 467.31 C 395.00 464.58, 395.00 459.54, 395.00 456.81 C 395.00 454.08, 395.00 449.03, 395.00 446.30 C 395.00 443.57, 395.00 438.53, 395.00 435.80 C 395.00 433.07, 395.00 428.02, 395.02 425.30 C 395.03 422.57, 395.05 417.54, 395.11 414.83 C 395.18 412.13, 395.32 407.14, 395.51 404.49 C 395.71 401.84, 396.20 397.00, 396.60 394.44 C 396.99 391.87, 397.93 387.21, 398.56 384.74 C 399.19 382.27, 400.57 377.80, 401.44 375.43 C 402.31 373.06, 404.15 368.78, 405.27 366.51 C 406.39 364.25, 408.68 360.15, 410.06 358.00 C 411.44 355.85, 414.24 351.98, 415.87 349.96 C 417.50 347.94, 420.74 344.32, 422.59 342.48 C 424.43 340.63, 428.05 337.39, 430.06 335.77 C 432.08 334.14, 435.96 331.34, 438.11 329.97 C 440.27 328.61, 444.38 326.34, 446.65 325.24 C 448.93 324.14, 453.23 322.36, 455.61 321.52 C 458.00 320.68, 462.49 319.35, 464.98 318.78 C 467.48 318.20, 472.19 317.42, 474.79 317.10 C 477.39 316.78, 482.30 316.45, 484.97 316.31 C 487.65 316.18, 492.66 316.10, 495.37 316.06 C 498.09 316.02, 503.13 316.02, 505.86 316.01 C 508.59 316.00, 513.63 316.00, 516.36 316.00 C 519.09 316.00, 524.13 316.00, 526.86 316.00 C 529.60 316.00, 534.64 316.00, 537.37 316.00 C 540.10 316.00, 545.14 316.00, 547.88 316.00 C 550.61 316.00, 540.63 316.00, 558.38 316.00 C 576.14 316.00, 666.69 316.00, 684.45 316.00 C 702.20 316.00, 692.22 316.00, 694.95 316.00 C 697.68 316.00, 702.73 316.00, 705.46 316.00 C 708.19 316.00, 713.23 316.00, 715.96 316.00 C 718.69 316.00, 723.74 316.00, 726.47 316.00 C 729.20 316.00, 734.25 316.00, 736.96 316.01 C 739.68 316.03, 744.73 316.02, 747.36 316.13 C 749.98 316.24, 754.68 316.61, 757.18 316.85 C 759.68 317.10, 765.01 316.80, 766.58 318.01 C 768.14 319.23, 768.69 323.93, 769.21 326.19 C 769.74 328.45, 770.41 332.87, 770.64 335.40 C 770.87 337.92, 770.91 342.94, 770.97 345.63 C 771.03 348.31, 771.04 353.35, 771.11 356.05 C 771.18 358.75, 771.33 363.73, 771.53 366.38 C 771.74 369.03, 772.26 373.86, 772.67 376.42 C 773.08 378.98, 774.06 383.61, 774.69 386.09 C 775.32 388.56, 776.68 393.04, 777.51 395.42 C 778.34 397.81, 780.07 402.14, 781.10 404.44 C 782.13 406.74, 784.21 410.92, 785.44 413.15 C 786.66 415.37, 789.09 419.41, 790.51 421.55 C 791.93 423.69, 794.74 427.57, 796.37 429.62 C 797.99 431.67, 801.18 435.38, 802.99 437.33 C 804.79 439.28, 808.29 442.78, 810.23 444.60 C 812.17 446.41, 815.87 449.63, 817.92 451.27 C 819.96 452.91, 823.81 455.78, 825.94 457.23 C 828.07 458.67, 832.09 461.15, 834.31 462.39 C 836.53 463.63, 840.71 465.70, 843.01 466.75 C 845.30 467.80, 849.60 469.60, 851.98 470.46 C 854.35 471.33, 858.80 472.75, 861.27 473.40 C 863.73 474.05, 868.37 475.03, 870.91 475.47 C 873.46 475.91, 878.25 476.52, 880.87 476.79 C 883.49 477.07, 888.38 477.43, 891.05 477.58 C 893.72 477.72, 898.71 477.85, 901.42 477.90 C 904.13 477.95, 909.17 477.97, 911.89 477.99 C 914.62 478.00, 919.66 478.00, 922.39 478.00 C 925.12 478.00, 930.17 478.00, 932.90 478.00 C 935.63 478.00, 940.67 478.00, 943.40 478.00 C 946.14 478.00, 951.18 478.00, 953.91 478.00 C 956.64 478.00, 961.68 478.00, 964.41 478.00 C 967.15 478.00, 972.19 478.00, 974.92 478.00 C 977.65 478.00, 982.69 478.00, 985.42 478.00 C 988.16 478.00, 993.20 478.00, 995.92 477.99 C 998.64 477.98, 1003.69 477.99, 1006.34 477.90 C 1008.98 477.81, 1013.74 477.52, 1016.27 477.32 C 1018.80 477.13, 1023.96 477.28, 1025.77 476.38 C 1027.59 475.48, 1029.78 472.36, 1030.22 470.42 C 1030.65 468.48, 1029.53 463.80, 1029.15 461.44 C 1028.77 459.08, 1027.95 454.67, 1027.29 452.30 C 1026.63 449.93, 1025.07 445.53, 1024.09 443.21 C 1023.11 440.90, 1021.01 436.72, 1019.77 434.51 C 1018.53 432.29, 1016.00 428.29, 1014.54 426.17 C 1013.08 424.04, 1010.19 420.19, 1008.55 418.14 C 1006.91 416.09, 1003.68 412.38, 1001.89 410.40 C 1000.10 408.41, 996.63 404.80, 994.75 402.85 C 992.87 400.90, 989.32 397.32, 987.43 395.38 C 985.53 393.44, 982.03 389.86, 980.16 387.93 C 978.29 385.99, 974.90 382.42, 973.06 380.50 C 971.22 378.58, 967.85 375.06, 965.99 373.15 C 964.13 371.23, 960.64 367.70, 958.74 365.78 C 956.84 363.85, 953.28 360.29, 951.36 358.37 C 949.44 356.44, 945.87 352.87, 943.94 350.94 C 942.01 349.01, 938.44 345.44, 936.51 343.51 C 934.58 341.58, 931.02 338.02, 929.08 336.08 C 927.15 334.15, 923.59 330.59, 921.66 328.66 C 919.74 326.73, 916.18 323.18, 914.27 321.26 C 912.36 319.34, 908.86 315.81, 906.98 313.90 C 905.11 311.99, 901.72 308.49, 899.88 306.57 C 898.03 304.64, 894.67 301.06, 892.81 299.12 C 890.95 297.18, 887.47 293.59, 885.57 291.65 C 883.67 289.71, 880.12 286.14, 878.20 284.21 C 876.27 282.28, 872.71 278.71, 870.78 276.78 C 868.85 274.85, 865.28 271.28, 863.35 269.35 C 861.42 267.42, 857.85 263.85, 855.92 261.92 C 853.99 259.99, 850.43 256.42, 848.50 254.49 C 846.58 252.55, 843.03 248.98, 841.12 247.04 C 839.22 245.10, 835.73 241.50, 833.85 239.55 C 831.98 237.59, 828.57 233.96, 826.70 232.00 C 824.82 230.05, 821.33 226.45, 819.43 224.51 C 817.52 222.57, 813.97 219.00, 812.05 217.06 C 810.12 215.13, 806.56 211.56, 804.63 209.63 C 802.70 207.70, 799.13 204.13, 797.20 202.20 C 795.27 200.27, 791.70 196.71, 789.76 194.80 C 787.82 192.89, 784.24 189.35, 782.27 187.52 C 780.30 185.69, 776.64 182.35, 774.58 180.73 C 772.52 179.11, 768.62 176.34, 766.43 175.05 C 764.23 173.76, 760.03 171.73, 757.67 170.82 C 755.32 169.91, 750.83 168.58, 748.32 168.03 C 745.82 167.49, 741.03 166.86, 738.40 166.62 C 735.77 166.37, 730.80 166.21, 728.10 166.13 C 725.40 166.05, 720.36 166.03, 717.64 166.02 C 714.91 166.00, 709.87 166.00, 707.14 166.00 C 704.41 166.00, 699.37 166.00, 696.64 166.00 C 693.90 166.00, 688.86 166.00, 686.13 166.00 C 683.40 166.00, 678.36 166.00, 675.62 166.00 C 672.89 166.00, 667.85 166.00, 665.12 166.00 C 662.39 166.00, 657.35 166.00, 654.61 166.00 C 651.88 166.00, 646.84 166.00, 644.11 166.00 C 641.38 166.00, 636.33 166.00, 633.60 166.00 C 630.87 166.00, 625.83 166.00, 623.10 166.00 C 620.37 166.00, 615.32 166.00, 612.59 166.00 C 609.86 166.00, 604.82 166.00, 602.09 166.00 C 599.36 166.00, 594.31 166.00, 591.58 166.00 C 588.85 166.00, 583.81 166.00, 581.08 166.00 C 578.34 166.00, 573.30 166.00, 570.57 166.00 C 567.84 166.00, 562.80 166.00, 560.07 166.00 C 557.33 166.00, 552.29 166.00, 549.56 166.00 C 546.83 166.00, 541.79 166.00, 539.05 166.00 C 536.32 166.00, 531.28 166.00, 528.55 166.00 C 525.82 166.00, 520.77 166.00, 518.04 166.00 C 515.31 166.00, 510.27 166.00, 507.54 166.00 C 504.81 166.00, 499.76 166.00, 497.03 166.00 C 494.30 166.00, 489.26 166.00, 486.53 166.00 C 483.80 166.00, 478.75 166.00, 476.02 166.00 C 473.29 166.00, 468.25 166.00, 465.52 166.00 C 462.79 166.00, 457.74 166.00, 455.02 166.02 C 452.29 166.03, 447.26 166.05, 444.55 166.12 C 441.85 166.18, 436.87 166.33, 434.21 166.52 Z
    M 611.87 391.21 C 611.75 390.30, 611.24 394.61, 611.12 396.11 C 611.01 397.61, 611.05 400.99, 611.00 402.73 C 610.95 404.48, 610.87 406.85, 610.71 409.50 C 610.55 412.15, 610.02 419.58, 609.77 423.12 C 609.52 426.66, 609.04 433.19, 608.77 436.72 C 608.50 440.26, 607.94 447.67, 607.71 450.30 C 607.47 452.94, 607.16 455.26, 606.94 456.99 C 606.71 458.72, 606.51 460.18, 605.99 463.61 C 605.48 467.04, 603.51 479.96, 602.97 483.38 C 602.43 486.80, 602.16 488.23, 601.84 489.92 C 601.51 491.61, 600.85 494.70, 600.46 496.36 C 600.07 498.02, 599.29 501.06, 598.83 502.70 C 598.38 504.33, 597.46 507.31, 596.95 508.92 C 596.43 510.53, 595.45 513.49, 594.88 515.07 C 594.30 516.66, 593.20 519.57, 592.55 521.12 C 591.91 522.68, 590.62 525.51, 589.89 527.03 C 589.17 528.55, 587.77 531.33, 586.95 532.82 C 586.14 534.30, 584.58 537.02, 583.65 538.45 C 582.73 539.89, 580.88 542.48, 579.84 543.85 C 578.79 545.21, 576.75 547.66, 575.60 548.93 C 574.44 550.20, 572.22 552.43, 570.96 553.60 C 569.70 554.76, 567.26 556.84, 565.91 557.92 C 564.57 559.01, 562.02 560.98, 560.62 561.96 C 559.21 562.95, 556.56 564.68, 555.09 565.54 C 553.62 566.39, 550.86 567.84, 549.33 568.54 C 547.80 569.25, 545.68 570.07, 543.32 570.95 C 540.95 571.83, 533.51 574.53, 531.11 575.33 C 528.72 576.14, 526.50 576.71, 524.86 577.16 C 523.22 577.61, 521.01 578.19, 518.52 578.78 C 516.03 579.37, 508.23 581.17, 505.72 581.71 C 503.21 582.25, 500.92 582.64, 499.22 582.93 C 497.51 583.22, 494.35 583.70, 492.62 583.93 C 490.89 584.16, 488.57 584.47, 485.93 584.71 C 483.30 584.94, 475.89 585.51, 472.36 585.77 C 468.82 586.03, 461.39 586.55, 458.74 586.71 C 456.09 586.86, 453.70 586.91, 451.95 586.95 C 450.20 587.00, 446.83 587.00, 445.29 587.04 C 443.75 587.08, 440.20 587.15, 440.13 587.26 C 440.06 587.38, 443.29 587.79, 444.74 587.91 C 446.19 588.04, 447.78 587.99, 451.27 588.20 C 454.76 588.42, 468.05 589.33, 471.56 589.58 C 475.08 589.84, 476.58 590.00, 478.33 590.18 C 480.07 590.36, 483.27 590.76, 485.01 590.98 C 486.74 591.20, 489.07 591.49, 491.64 591.87 C 494.22 592.26, 502.25 593.52, 504.81 593.93 C 507.37 594.34, 509.67 594.72, 511.36 595.04 C 513.05 595.35, 516.17 595.95, 517.82 596.35 C 519.48 596.74, 522.49 597.60, 524.12 598.07 C 525.74 598.55, 528.72 599.50, 530.32 600.02 C 531.93 600.53, 534.90 601.50, 536.49 602.05 C 538.08 602.60, 541.02 603.63, 542.59 604.24 C 544.16 604.86, 547.02 606.08, 548.54 606.80 C 550.06 607.52, 552.84 608.93, 554.31 609.78 C 555.79 610.63, 558.45 612.33, 559.86 613.31 C 561.27 614.29, 563.83 616.26, 565.19 617.36 C 566.55 618.46, 569.03 620.57, 570.33 621.77 C 571.63 622.98, 573.96 625.31, 575.16 626.61 C 576.36 627.91, 578.47 630.39, 579.55 631.76 C 580.64 633.13, 582.55 635.70, 583.50 637.13 C 584.46 638.55, 586.05 641.26, 586.89 642.73 C 587.72 644.21, 589.17 646.97, 589.94 648.48 C 590.70 649.99, 592.06 652.78, 592.76 654.32 C 593.46 655.85, 594.67 658.71, 595.30 660.28 C 595.93 661.84, 597.06 664.73, 597.60 666.33 C 598.14 667.93, 598.80 670.11, 599.46 672.57 C 600.12 675.03, 602.10 682.76, 602.68 685.25 C 603.26 687.75, 603.63 690.05, 603.93 691.74 C 604.23 693.44, 604.46 694.89, 604.99 698.31 C 605.52 701.74, 607.48 714.67, 607.99 718.10 C 608.50 721.53, 608.71 722.99, 608.94 724.72 C 609.16 726.44, 609.47 728.78, 609.71 731.40 C 609.94 734.02, 610.57 742.26, 610.75 744.87 C 610.93 747.47, 610.95 749.92, 611.07 751.44 C 611.18 752.96, 611.41 757.29, 611.63 756.54 C 611.85 755.78, 612.54 747.91, 612.75 745.63 C 612.96 743.35, 613.03 741.60, 613.23 738.98 C 613.43 736.35, 614.06 728.05, 614.29 725.42 C 614.53 722.78, 614.59 722.17, 615.06 718.73 C 615.53 715.28, 617.46 702.34, 617.91 698.89 C 618.36 695.45, 618.46 693.96, 618.51 692.23 C 618.57 690.49, 618.60 688.11, 618.34 685.52 C 618.09 682.94, 617.01 674.87, 616.58 672.36 C 616.15 669.85, 615.92 668.45, 615.04 666.22 C 614.15 663.98, 610.70 657.38, 609.75 655.15 C 608.80 652.93, 608.26 650.66, 607.70 649.09 C 607.14 647.51, 606.10 644.58, 605.45 643.03 C 604.79 641.49, 603.38 638.70, 602.68 637.18 C 601.97 635.66, 600.74 632.81, 600.02 631.31 C 599.31 629.81, 598.03 627.04, 597.18 625.65 C 596.33 624.27, 594.50 621.89, 593.48 620.66 C 592.45 619.42, 590.40 617.30, 589.31 616.15 C 588.22 614.99, 586.08 613.04, 585.11 611.79 C 584.14 610.55, 582.68 607.97, 581.83 606.59 C 580.98 605.20, 579.52 602.48, 578.57 601.14 C 577.63 599.81, 575.71 597.42, 574.57 596.32 C 573.44 595.22, 571.11 593.54, 569.84 592.66 C 568.57 591.78, 565.46 590.43, 564.82 589.58 C 564.18 588.72, 564.23 586.94, 564.90 586.07 C 565.57 585.20, 568.64 583.75, 569.95 582.87 C 571.25 581.98, 573.70 580.31, 574.95 579.27 C 576.20 578.24, 578.49 576.12, 579.60 574.89 C 580.70 573.67, 582.38 571.10, 583.43 569.83 C 584.47 568.57, 586.43 566.27, 587.60 565.19 C 588.78 564.10, 591.24 562.49, 592.47 561.50 C 593.70 560.51, 595.92 558.66, 597.07 557.55 C 598.22 556.44, 600.26 554.21, 601.32 552.96 C 602.37 551.71, 604.18 549.26, 605.15 547.94 C 606.12 546.63, 607.81 543.87, 608.77 542.86 C 609.73 541.84, 611.13 539.25, 612.52 540.13 C 613.92 541.01, 618.08 547.75, 619.52 549.62 C 620.97 551.48, 622.50 553.26, 623.64 554.46 C 624.77 555.67, 627.01 557.82, 628.27 558.88 C 629.52 559.95, 632.06 561.60, 633.29 562.66 C 634.52 563.71, 636.66 565.78, 637.72 566.99 C 638.79 568.20, 640.44 570.72, 641.48 571.97 C 642.51 573.22, 644.47 575.51, 645.68 576.61 C 646.88 577.71, 649.39 579.53, 650.74 580.42 C 652.10 581.30, 654.71 582.67, 656.10 583.40 C 657.49 584.13, 660.61 585.33, 661.44 586.05 C 662.27 586.78, 662.98 588.19, 662.51 588.97 C 662.03 589.75, 658.98 591.16, 657.78 592.06 C 656.59 592.95, 654.03 594.60, 653.30 595.84 C 652.56 597.09, 651.79 600.28, 652.13 601.61 C 652.47 602.94, 654.69 605.20, 655.90 606.05 C 657.11 606.89, 660.00 607.78, 661.46 608.09 C 662.92 608.41, 665.65 608.63, 667.15 608.46 C 668.65 608.29, 671.46 607.32, 672.99 606.79 C 674.51 606.27, 677.35 605.01, 678.90 604.40 C 680.46 603.79, 683.37 602.68, 684.95 602.12 C 686.54 601.55, 689.50 600.57, 691.11 600.05 C 692.71 599.54, 695.70 598.62, 697.33 598.16 C 698.96 597.70, 702.00 596.90, 703.65 596.49 C 705.30 596.09, 708.38 595.38, 710.04 595.01 C 711.71 594.63, 714.79 593.95, 716.47 593.61 C 718.16 593.27, 721.27 592.67, 722.98 592.40 C 724.69 592.13, 727.89 591.74, 729.63 591.53 C 731.37 591.33, 733.73 591.12, 736.35 590.83 C 738.96 590.54, 746.22 589.62, 749.73 589.29 C 753.23 588.96, 760.67 588.45, 763.32 588.29 C 765.98 588.13, 767.67 588.11, 770.13 588.06 C 772.59 588.00, 781.14 587.99, 782.23 587.87 C 783.31 587.75, 779.80 587.24, 778.46 587.13 C 777.12 587.02, 773.64 587.06, 771.92 587.02 C 770.20 586.98, 766.97 586.88, 765.21 586.80 C 763.45 586.72, 761.92 586.66, 758.39 586.39 C 754.86 586.12, 741.58 585.01, 738.07 584.69 C 734.56 584.37, 733.11 584.15, 731.38 583.92 C 729.65 583.70, 726.48 583.23, 724.77 582.97 C 723.06 582.70, 719.91 582.18, 718.21 581.88 C 716.51 581.58, 713.40 580.97, 711.72 580.63 C 710.04 580.29, 706.94 579.64, 705.28 579.26 C 703.61 578.88, 700.54 578.17, 698.91 577.72 C 697.27 577.27, 694.29 576.35, 692.68 575.82 C 691.08 575.29, 688.16 574.21, 686.58 573.63 C 685.00 573.04, 682.09 571.95, 680.53 571.32 C 678.97 570.68, 676.11 569.46, 674.59 568.73 C 673.07 568.00, 670.31 566.55, 668.84 565.70 C 667.37 564.85, 664.71 563.16, 663.28 562.21 C 661.85 561.26, 659.23 559.46, 657.85 558.42 C 656.47 557.37, 653.95 555.32, 652.65 554.14 C 651.35 552.96, 649.02 550.63, 647.84 549.33 C 646.66 548.02, 644.62 545.51, 643.58 544.13 C 642.54 542.74, 640.76 540.11, 639.83 538.67 C 638.90 537.24, 637.28 534.55, 636.44 533.07 C 635.61 531.59, 634.18 528.82, 633.43 527.31 C 632.68 525.80, 631.35 522.98, 630.69 521.44 C 630.02 519.89, 628.86 517.01, 628.28 515.42 C 627.70 513.84, 626.75 510.87, 626.24 509.26 C 625.74 507.64, 625.05 505.48, 624.43 503.00 C 623.80 500.53, 621.99 492.73, 621.43 490.23 C 620.87 487.73, 620.44 485.45, 620.13 483.76 C 619.82 482.06, 619.43 479.77, 619.02 477.20 C 618.62 474.64, 617.39 466.60, 617.01 464.02 C 616.62 461.45, 616.29 459.13, 616.06 457.40 C 615.84 455.67, 615.53 453.35, 615.29 450.71 C 615.06 448.08, 614.50 440.67, 614.23 437.14 C 613.96 433.60, 613.48 427.07, 613.23 423.53 C 612.98 420.00, 612.45 412.57, 612.29 409.92 C 612.14 407.26, 612.11 405.55, 612.06 403.12 C 612.00 400.69, 611.99 392.12, 611.87 391.21 Z" fill-rule="evenodd"/>
    </clipPath>
  
    <!-- Local glow limited to the sparkle only; no glow is drawn inside the pen nib. -->
    <radialGradient id="sparkOnlyGlow" cx="0" cy="0" r="1" gradientUnits="userSpaceOnUse"
      gradientTransform="translate(610 585) rotate(90) scale(175 175)">
      <stop offset="0" stop-color="#FFFFFF" stop-opacity="1"/>
      <stop offset="0.18" stop-color="#FFFFFF" stop-opacity="0.82"/>
      <stop offset="0.42" stop-color="#F2D8FF" stop-opacity="0.40"/>
      <stop offset="0.70" stop-color="#755CFF" stop-opacity="0.16"/>
      <stop offset="1" stop-color="#FFFFFF" stop-opacity="0"/>
    </radialGradient>

    <filter id="sparkOnlyBlur" x="-80%" y="-80%" width="260%" height="260%">
      <feGaussianBlur stdDeviation="15"/>
    </filter>

  
    <!-- Stronger local blur for the jagged inner sparkle edge.
         Still limited to the sparkle area; no diagonal pen stroke is added. -->
    <radialGradient id="sparkEdgeDissolveGlow" cx="0" cy="0" r="1" gradientUnits="userSpaceOnUse"
      gradientTransform="translate(610 585) rotate(90) scale(230 215)">
      <stop offset="0" stop-color="#FFFFFF" stop-opacity="1"/>
      <stop offset="0.24" stop-color="#FFFFFF" stop-opacity="0.94"/>
      <stop offset="0.46" stop-color="#F9EDFF" stop-opacity="0.64"/>
      <stop offset="0.72" stop-color="#C8BBFF" stop-opacity="0.28"/>
      <stop offset="1" stop-color="#FFFFFF" stop-opacity="0"/>
    </radialGradient>

    <filter id="sparkEdgeHeavyBlur" x="-100%" y="-100%" width="300%" height="300%">
      <feGaussianBlur stdDeviation="26"/>
    </filter>

    <filter id="sparkEdgeMediumBlur" x="-100%" y="-100%" width="300%" height="300%">
      <feGaussianBlur stdDeviation="17"/>
    </filter>

  </defs>
<!-- Main shape: exact original path, unchanged. -->
  <path
    d="M 434.21 166.52 C 431.56 166.70, 426.72 167.19, 424.13 167.54 C 421.55 167.89, 416.85 168.72, 414.32 169.22 C 411.80 169.73, 407.20 170.79, 404.74 171.44 C 402.27 172.08, 397.78 173.41, 395.37 174.18 C 392.96 174.96, 388.55 176.49, 386.19 177.38 C 383.82 178.26, 379.51 180.02, 377.19 181.01 C 374.86 182.00, 370.61 183.91, 368.33 185.00 C 366.05 186.09, 361.87 188.18, 359.64 189.38 C 357.41 190.59, 353.34 192.93, 351.16 194.26 C 348.98 195.59, 345.00 198.17, 342.87 199.62 C 340.74 201.08, 336.86 203.88, 334.78 205.44 C 332.70 207.01, 328.89 209.98, 326.85 211.67 C 324.82 213.35, 321.11 216.58, 319.14 218.38 C 317.16 220.19, 313.57 223.66, 311.66 225.56 C 309.76 227.47, 306.29 231.06, 304.48 233.04 C 302.67 235.01, 299.45 238.72, 297.77 240.75 C 296.08 242.79, 293.10 246.60, 291.54 248.68 C 289.97 250.76, 287.16 254.64, 285.70 256.76 C 284.23 258.89, 281.63 262.85, 280.27 265.02 C 278.90 267.19, 276.48 271.22, 275.22 273.43 C 273.96 275.64, 271.72 279.76, 270.58 282.02 C 269.43 284.27, 267.45 288.49, 266.41 290.80 C 265.38 293.10, 263.57 297.39, 262.63 299.74 C 261.70 302.08, 260.06 306.45, 259.22 308.83 C 258.38 311.21, 256.90 315.64, 256.16 318.07 C 255.42 320.49, 254.12 325.00, 253.52 327.48 C 252.91 329.96, 251.96 334.61, 251.52 337.16 C 251.08 339.71, 250.45 344.49, 250.14 347.09 C 249.82 349.69, 249.34 354.53, 249.12 357.17 C 248.89 359.81, 248.54 364.71, 248.41 367.38 C 248.27 370.06, 248.15 375.05, 248.10 377.76 C 248.05 380.47, 248.03 385.51, 248.01 388.23 C 248.00 390.96, 248.00 396.00, 248.00 398.73 C 248.00 401.46, 248.00 406.50, 248.00 409.24 C 248.00 411.97, 248.00 417.01, 248.00 419.74 C 248.00 422.47, 248.00 427.52, 248.00 430.25 C 248.00 432.98, 248.00 438.02, 248.00 440.75 C 248.00 443.48, 248.00 411.65, 248.00 451.26 C 248.00 490.86, 248.00 705.80, 248.00 745.41 C 248.00 785.02, 248.00 753.18, 248.00 755.92 C 248.00 758.65, 248.00 763.69, 248.00 766.42 C 248.00 769.15, 248.00 774.19, 248.00 776.93 C 248.00 779.66, 248.00 784.70, 248.00 787.43 C 248.00 790.16, 248.00 795.20, 247.99 797.93 C 247.98 800.66, 247.96 805.69, 247.93 808.40 C 247.90 811.11, 247.81 816.10, 247.76 818.78 C 247.71 821.46, 247.57 826.36, 247.54 829.01 C 247.50 831.65, 247.50 836.51, 247.47 839.16 C 247.43 841.81, 247.29 846.71, 247.25 849.38 C 247.22 852.06, 247.15 857.04, 247.16 859.73 C 247.18 862.42, 247.29 867.40, 247.40 870.08 C 247.51 872.75, 247.85 877.66, 248.02 880.32 C 248.19 882.98, 248.54 887.87, 248.73 890.53 C 248.92 893.18, 249.20 898.11, 249.45 900.73 C 249.71 903.36, 250.27 908.17, 250.69 910.73 C 251.10 913.29, 252.09 917.92, 252.66 920.41 C 253.24 922.91, 254.42 927.46, 255.10 929.91 C 255.77 932.36, 257.09 936.86, 257.86 939.27 C 258.63 941.69, 260.15 946.10, 261.02 948.47 C 261.89 950.84, 263.56 955.19, 264.55 957.51 C 265.54 959.83, 267.51 964.06, 268.63 966.33 C 269.74 968.60, 271.91 972.74, 273.12 974.96 C 274.33 977.19, 276.63 981.27, 277.94 983.43 C 279.24 985.60, 281.75 989.54, 283.16 991.64 C 284.57 993.74, 287.28 997.54, 288.81 999.59 C 290.34 1001.64, 293.27 1005.40, 294.94 1007.42 C 296.60 1009.43, 299.82 1013.13, 301.63 1015.10 C 303.43 1017.06, 306.91 1020.64, 308.82 1022.52 C 310.74 1024.40, 314.37 1027.79, 316.36 1029.54 C 318.36 1031.29, 322.14 1034.35, 324.19 1035.98 C 326.25 1037.60, 330.10 1040.49, 332.20 1042.01 C 334.30 1043.53, 338.21 1046.27, 340.35 1047.69 C 342.50 1049.11, 346.51 1051.59, 348.70 1052.91 C 350.88 1054.22, 354.96 1056.56, 357.18 1057.78 C 359.41 1059.00, 363.55 1061.17, 365.83 1062.27 C 368.10 1063.37, 372.36 1065.28, 374.69 1066.25 C 377.01 1067.22, 381.37 1068.89, 383.74 1069.75 C 386.12 1070.61, 390.54 1072.10, 392.96 1072.85 C 395.38 1073.61, 399.88 1074.93, 402.34 1075.57 C 404.81 1076.22, 409.41 1077.29, 411.92 1077.81 C 414.44 1078.33, 419.13 1079.18, 421.69 1079.58 C 424.26 1079.98, 429.05 1080.59, 431.66 1080.89 C 434.26 1081.19, 439.11 1081.67, 441.75 1081.89 C 444.39 1082.11, 449.28 1082.46, 451.96 1082.59 C 454.64 1082.73, 459.63 1082.85, 462.34 1082.90 C 465.05 1082.95, 470.08 1082.97, 472.81 1082.99 C 475.53 1083.00, 480.58 1083.00, 483.31 1083.00 C 486.04 1083.00, 491.08 1083.00, 493.81 1083.00 C 496.54 1083.00, 501.59 1083.00, 504.32 1083.00 C 507.05 1083.00, 512.09 1083.00, 514.82 1083.00 C 517.56 1083.00, 513.04 1083.00, 525.33 1083.00 C 537.62 1083.00, 597.08 1083.00, 609.37 1083.00 C 621.66 1083.00, 617.15 1083.00, 619.88 1083.00 C 622.61 1083.00, 627.65 1083.00, 630.37 1083.00 C 633.09 1083.00, 638.12 1083.00, 640.81 1083.00 C 643.50 1083.00, 648.44 1083.00, 651.06 1083.00 C 653.68 1083.00, 658.43 1083.00, 660.99 1082.99 C 663.54 1082.98, 668.20 1082.97, 670.71 1082.93 C 673.22 1082.90, 677.83 1082.81, 680.33 1082.74 C 682.83 1082.67, 687.40 1082.48, 689.92 1082.40 C 692.44 1082.33, 697.13 1082.22, 699.72 1082.20 C 702.30 1082.18, 707.17 1082.23, 709.80 1082.26 C 712.43 1082.28, 717.32 1082.39, 719.96 1082.39 C 722.61 1082.38, 727.50 1082.27, 730.15 1082.23 C 732.80 1082.19, 737.70 1082.10, 740.34 1082.07 C 742.99 1082.04, 747.84 1082.02, 750.50 1082.01 C 753.16 1082.00, 758.11 1082.00, 760.81 1082.00 C 763.51 1082.00, 768.53 1082.00, 771.26 1082.00 C 773.98 1082.00, 779.02 1082.00, 781.75 1082.00 C 784.48 1082.00, 789.53 1082.00, 792.26 1082.00 C 794.99 1082.00, 800.03 1082.00, 802.76 1082.00 C 805.49 1082.00, 810.54 1082.00, 813.27 1082.00 C 816.00 1082.00, 821.04 1082.00, 823.77 1082.00 C 826.50 1082.00, 831.55 1082.00, 834.27 1082.00 C 836.99 1082.00, 842.02 1082.00, 844.72 1082.00 C 847.42 1082.00, 852.37 1082.00, 855.04 1082.01 C 857.70 1082.01, 862.56 1082.01, 865.23 1082.01 C 867.89 1082.01, 872.84 1082.01, 875.54 1082.00 C 878.24 1082.00, 883.27 1082.00, 885.98 1081.99 C 888.70 1081.97, 893.73 1081.95, 896.44 1081.89 C 899.14 1081.82, 904.12 1081.68, 906.77 1081.48 C 909.43 1081.29, 914.26 1080.79, 916.83 1080.40 C 919.40 1080.01, 924.05 1079.07, 926.54 1078.47 C 929.02 1077.86, 933.52 1076.55, 935.92 1075.77 C 938.33 1074.99, 942.72 1073.41, 945.06 1072.46 C 947.39 1071.51, 951.64 1069.58, 953.90 1068.44 C 956.16 1067.30, 960.26 1065.02, 962.44 1063.70 C 964.63 1062.38, 968.59 1059.79, 970.70 1058.27 C 972.80 1056.75, 976.59 1053.74, 978.61 1052.04 C 980.63 1050.34, 984.30 1047.05, 986.23 1045.21 C 988.16 1043.37, 991.66 1039.86, 993.47 1037.90 C 995.27 1035.95, 998.47 1032.25, 1000.10 1030.19 C 1001.72 1028.14, 1004.54 1024.27, 1005.96 1022.13 C 1007.38 1019.98, 1009.80 1015.94, 1011.05 1013.73 C 1012.30 1011.51, 1014.48 1007.37, 1015.58 1005.10 C 1016.68 1002.82, 1018.57 998.56, 1019.50 996.22 C 1020.44 993.88, 1022.01 989.48, 1022.79 987.08 C 1023.58 984.67, 1024.91 980.18, 1025.56 977.72 C 1026.21 975.25, 1027.27 970.65, 1027.77 968.13 C 1028.27 965.60, 1029.07 960.89, 1029.41 958.30 C 1029.74 955.72, 1030.19 950.85, 1030.33 948.22 C 1030.47 945.59, 1030.62 940.63, 1030.50 938.06 C 1030.38 935.49, 1029.83 930.88, 1029.38 928.47 C 1028.94 926.05, 1028.50 921.06, 1027.09 919.48 C 1025.67 917.90, 1020.81 917.04, 1018.52 916.30 C 1016.22 915.56, 1011.85 914.41, 1009.43 913.80 C 1007.01 913.19, 1002.35 912.24, 999.89 911.62 C 997.42 911.00, 992.89 909.76, 990.46 909.02 C 988.04 908.28, 983.61 906.80, 981.25 905.91 C 978.88 905.03, 974.56 903.28, 972.27 902.22 C 969.98 901.15, 965.84 898.98, 963.63 897.72 C 961.42 896.46, 957.41 893.97, 955.28 892.52 C 953.15 891.07, 949.29 888.22, 947.24 886.58 C 945.20 884.94, 941.50 881.73, 939.55 879.92 C 937.61 878.11, 934.11 874.60, 932.30 872.66 C 930.49 870.71, 927.29 867.01, 925.67 864.95 C 924.05 862.90, 921.24 859.02, 919.83 856.87 C 918.43 854.73, 916.05 850.67, 914.86 848.43 C 913.66 846.20, 911.62 842.00, 910.61 839.69 C 909.60 837.37, 907.94 833.02, 907.10 830.63 C 906.27 828.25, 904.87 823.78, 904.20 821.33 C 903.53 818.88, 902.40 814.30, 901.94 811.77 C 901.49 809.23, 900.89 804.45, 900.69 801.84 C 900.49 799.22, 900.42 794.29, 900.40 791.67 C 900.38 789.05, 900.62 784.18, 900.56 781.68 C 900.49 779.19, 900.43 774.67, 899.92 772.46 C 899.42 770.26, 897.92 766.52, 896.67 764.72 C 895.43 762.92, 892.20 760.09, 890.34 758.63 C 888.48 757.18, 884.49 754.83, 882.36 753.55 C 880.22 752.26, 876.10 750.01, 873.90 748.76 C 871.69 747.51, 867.60 745.20, 865.40 743.94 C 863.19 742.67, 859.12 740.32, 856.91 739.06 C 854.71 737.79, 850.63 735.45, 848.43 734.18 C 846.22 732.90, 842.17 730.53, 839.96 729.27 C 837.75 728.01, 833.65 725.72, 831.43 724.48 C 829.22 723.24, 825.11 720.98, 822.89 719.74 C 820.68 718.49, 816.60 716.17, 814.39 714.90 C 812.18 713.63, 808.13 711.25, 805.93 709.97 C 803.73 708.68, 799.67 706.30, 797.47 705.02 C 795.27 703.74, 791.20 701.39, 789.00 700.12 C 786.79 698.85, 782.71 696.52, 780.51 695.25 C 778.30 693.98, 774.24 691.60, 772.04 690.34 C 769.83 689.08, 765.74 686.78, 763.53 685.53 C 761.31 684.27, 757.22 681.98, 755.01 680.71 C 752.81 679.45, 748.75 677.07, 746.54 675.80 C 744.34 674.53, 740.26 672.19, 738.06 670.92 C 735.85 669.65, 731.78 667.31, 729.58 666.04 C 727.37 664.77, 723.29 662.44, 721.08 661.18 C 718.88 659.91, 714.80 657.59, 712.59 656.32 C 710.38 655.05, 706.32 652.68, 704.11 651.42 C 701.91 650.16, 697.81 647.87, 695.60 646.62 C 693.38 645.38, 689.28 643.11, 687.06 641.86 C 684.85 640.61, 680.77 638.28, 678.56 637.02 C 676.35 635.76, 672.27 633.43, 670.07 632.18 C 667.86 630.94, 663.77 628.61, 661.59 627.45 C 659.41 626.29, 655.42 624.27, 653.28 623.27 C 651.15 622.27, 647.01 619.97, 645.17 619.78 C 643.33 619.58, 639.90 620.60, 639.13 621.78 C 638.37 622.97, 638.58 626.94, 639.25 628.88 C 639.92 630.82, 642.90 634.63, 644.27 636.67 C 645.64 638.72, 648.28 642.55, 649.79 644.62 C 651.30 646.68, 654.27 650.50, 655.88 652.56 C 657.49 654.62, 660.54 658.40, 662.16 660.46 C 663.79 662.52, 666.77 666.33, 668.38 668.39 C 669.99 670.45, 672.96 674.27, 674.58 676.33 C 676.21 678.39, 679.24 682.17, 680.87 684.23 C 682.50 686.29, 685.49 690.09, 687.11 692.15 C 688.73 694.21, 691.72 698.01, 693.35 700.07 C 694.98 702.13, 698.03 705.91, 699.66 707.96 C 701.28 710.02, 704.24 713.84, 705.85 715.91 C 707.45 717.97, 710.37 721.81, 711.97 723.87 C 713.57 725.94, 716.54 729.75, 718.17 731.81 C 719.79 733.87, 722.82 737.66, 724.44 739.72 C 726.06 741.78, 729.03 745.59, 730.63 747.66 C 732.24 749.73, 735.18 753.55, 736.79 755.62 C 738.40 757.68, 741.40 761.48, 743.03 763.52 C 744.67 765.56, 747.69 769.36, 749.36 771.31 C 751.04 773.25, 754.11 776.88, 755.92 778.50 C 757.73 780.13, 761.22 782.78, 763.28 783.83 C 765.34 784.88, 769.52 785.86, 771.77 786.59 C 774.01 787.31, 778.41 788.36, 780.55 789.37 C 782.68 790.38, 786.52 792.75, 788.21 794.35 C 789.90 795.94, 792.57 799.58, 793.55 801.67 C 794.53 803.76, 795.63 808.13, 795.74 810.44 C 795.86 812.74, 795.21 817.22, 794.44 819.39 C 793.66 821.57, 791.34 825.45, 789.80 827.18 C 788.26 828.90, 784.66 831.65, 782.61 832.66 C 780.55 833.67, 776.25 834.79, 774.00 834.93 C 771.74 835.07, 767.41 834.50, 765.29 833.77 C 763.16 833.04, 759.36 830.82, 757.67 829.30 C 755.98 827.79, 753.33 824.20, 752.29 822.12 C 751.26 820.04, 750.15 815.66, 749.73 813.31 C 749.31 810.96, 749.31 806.41, 749.06 804.05 C 748.81 801.69, 748.45 797.40, 747.79 795.16 C 747.14 792.92, 745.19 788.94, 744.00 786.80 C 742.80 784.66, 740.05 780.79, 738.57 778.70 C 737.10 776.60, 734.21 772.75, 732.66 770.67 C 731.11 768.58, 728.21 764.74, 726.64 762.66 C 725.08 760.58, 722.18 756.73, 720.59 754.66 C 719.00 752.59, 716.04 748.77, 714.43 746.71 C 712.81 744.64, 709.78 740.86, 708.16 738.80 C 706.54 736.74, 703.56 732.93, 701.97 730.86 C 700.37 728.79, 697.47 724.95, 695.89 722.87 C 694.32 720.79, 691.43 716.94, 689.86 714.86 C 688.30 712.78, 685.41 708.93, 683.85 706.85 C 682.28 704.76, 679.39 700.92, 677.82 698.84 C 676.25 696.76, 673.35 692.91, 671.76 690.84 C 670.17 688.77, 667.21 684.96, 665.59 682.89 C 663.97 680.83, 660.92 677.05, 659.30 674.99 C 657.68 672.93, 654.72 669.12, 653.13 667.05 C 651.53 664.97, 648.64 661.13, 647.06 659.06 C 645.48 657.00, 642.59 653.14, 641.00 651.16 C 639.41 649.18, 636.42 645.67, 634.81 643.83 C 633.21 642.00, 630.42 638.01, 628.67 637.04 C 626.91 636.07, 622.62 635.67, 621.29 636.38 C 619.96 637.09, 618.60 640.53, 618.43 642.48 C 618.26 644.43, 619.47 649.03, 619.95 651.36 C 620.44 653.70, 621.51 658.07, 622.16 660.46 C 622.81 662.85, 624.22 667.32, 624.94 669.75 C 625.65 672.17, 626.99 676.66, 627.68 679.11 C 628.37 681.55, 629.58 686.10, 630.25 688.55 C 630.93 691.00, 632.19 695.52, 632.87 697.97 C 633.55 700.42, 634.79 704.95, 635.48 707.39 C 636.17 709.84, 637.45 714.35, 638.16 716.79 C 638.88 719.22, 640.24 723.70, 640.96 726.13 C 641.68 728.57, 643.01 733.06, 643.70 735.50 C 644.40 737.95, 645.61 742.49, 646.29 744.94 C 646.98 747.38, 648.26 751.89, 648.95 754.34 C 649.65 756.78, 650.94 761.29, 651.63 763.73 C 652.33 766.18, 653.59 770.70, 654.29 773.14 C 654.99 775.58, 656.29 780.08, 656.99 782.53 C 657.68 784.97, 658.97 789.48, 659.65 791.93 C 660.33 794.38, 661.54 798.92, 662.21 801.37 C 662.89 803.83, 664.15 808.35, 664.83 810.80 C 665.50 813.25, 666.73 817.78, 667.41 820.23 C 668.09 822.68, 669.37 827.20, 670.05 829.64 C 670.74 832.09, 672.02 836.60, 672.70 839.05 C 673.38 841.50, 674.60 846.04, 675.29 848.48 C 675.98 850.93, 677.29 855.43, 678.00 857.87 C 678.70 860.31, 680.01 864.81, 680.70 867.25 C 681.40 869.69, 682.60 874.23, 683.34 876.62 C 684.08 879.00, 685.44 883.43, 686.40 885.60 C 687.36 887.76, 689.29 891.60, 690.72 893.27 C 692.15 894.95, 695.40 897.39, 697.38 898.49 C 699.36 899.59, 703.64 900.94, 705.96 901.71 C 708.28 902.48, 712.82 903.66, 715.22 904.41 C 717.62 905.16, 722.06 906.61, 724.42 907.49 C 726.79 908.38, 731.09 910.17, 733.39 911.20 C 735.70 912.22, 739.91 914.24, 742.15 915.41 C 744.40 916.57, 748.50 918.86, 750.69 920.16 C 752.88 921.47, 756.87 924.02, 759.00 925.46 C 761.14 926.90, 765.03 929.68, 767.11 931.25 C 769.19 932.81, 772.99 935.81, 775.03 937.50 C 777.06 939.18, 780.76 942.42, 782.73 944.23 C 784.71 946.05, 788.30 949.52, 790.21 951.42 C 792.12 953.32, 795.60 956.92, 797.42 958.88 C 799.25 960.85, 802.53 964.53, 804.26 966.55 C 805.99 968.56, 809.08 972.32, 810.70 974.38 C 812.32 976.44, 815.21 980.29, 816.72 982.40 C 818.24 984.50, 820.93 988.43, 822.35 990.57 C 823.78 992.71, 826.33 996.70, 827.69 998.87 C 829.04 1001.04, 831.48 1005.07, 832.75 1007.27 C 834.02 1009.47, 836.29 1013.59, 837.44 1015.79 C 838.59 1017.99, 840.56 1022.08, 841.58 1024.23 C 842.59 1026.37, 844.67 1030.49, 845.27 1032.30 C 845.87 1034.11, 846.65 1038.15, 846.19 1038.11 C 845.73 1038.08, 842.97 1033.68, 841.74 1032.00 C 840.52 1030.32, 838.16 1027.10, 836.78 1025.19 C 835.40 1023.28, 832.62 1019.37, 831.11 1017.30 C 829.60 1015.23, 826.73 1011.36, 825.15 1009.29 C 823.57 1007.22, 820.60 1003.41, 818.93 1001.37 C 817.27 999.33, 814.11 995.61, 812.35 993.63 C 810.59 991.65, 807.26 988.06, 805.40 986.16 C 803.54 984.26, 799.98 980.84, 798.04 979.02 C 796.09 977.20, 792.43 973.89, 790.42 972.17 C 788.40 970.45, 784.62 967.41, 782.56 965.80 C 780.49 964.20, 776.63 961.35, 774.52 959.86 C 772.40 958.36, 768.47 955.69, 766.31 954.30 C 764.16 952.91, 760.14 950.44, 757.94 949.15 C 755.74 947.86, 751.66 945.55, 749.42 944.36 C 747.18 943.18, 743.00 941.10, 740.71 940.02 C 738.43 938.93, 734.18 937.03, 731.85 936.04 C 729.53 935.05, 725.22 933.30, 722.85 932.42 C 720.48 931.55, 716.05 930.06, 713.63 929.32 C 711.20 928.59, 706.66 927.37, 704.17 926.78 C 701.68 926.19, 697.03 925.26, 694.49 924.81 C 691.94 924.35, 687.20 923.63, 684.61 923.28 C 682.02 922.94, 677.20 922.40, 674.57 922.16 C 671.94 921.91, 667.05 921.55, 664.37 921.41 C 661.70 921.28, 656.71 921.15, 654.00 921.10 C 651.29 921.05, 646.25 921.03, 643.53 921.01 C 640.80 921.00, 635.76 921.00, 633.03 921.00 C 630.30 921.00, 625.26 921.00, 622.52 921.00 C 619.79 921.00, 614.75 921.00, 612.02 921.00 C 609.29 921.00, 604.24 921.00, 601.51 921.00 C 598.78 921.00, 597.84 921.00, 591.01 921.00 C 584.18 921.00, 555.81 921.00, 548.99 921.00 C 542.16 921.00, 541.21 921.00, 538.48 921.00 C 535.75 921.00, 530.71 921.00, 527.97 921.00 C 525.24 921.00, 520.20 921.00, 517.47 921.00 C 514.74 921.00, 509.70 921.00, 506.96 921.00 C 504.23 921.00, 499.19 921.00, 496.47 920.98 C 493.74 920.97, 488.71 920.95, 486.01 920.87 C 483.30 920.80, 478.33 920.64, 475.69 920.40 C 473.06 920.17, 468.27 919.57, 465.74 919.07 C 463.21 918.58, 458.67 917.38, 456.25 916.61 C 453.84 915.85, 449.48 914.19, 447.18 913.16 C 444.87 912.13, 440.72 909.99, 438.53 908.70 C 436.34 907.41, 432.40 904.77, 430.36 903.21 C 428.31 901.65, 424.66 898.48, 422.80 896.66 C 420.94 894.85, 417.67 891.25, 416.02 889.25 C 414.37 887.25, 411.50 883.40, 410.09 881.27 C 408.68 879.13, 406.30 875.07, 405.17 872.81 C 404.05 870.55, 402.27 866.24, 401.41 863.86 C 400.55 861.49, 399.19 857.01, 398.57 854.54 C 397.94 852.06, 397.00 847.41, 396.60 844.84 C 396.21 842.28, 395.71 837.44, 395.52 834.79 C 395.32 832.14, 395.18 827.15, 395.11 824.45 C 395.05 821.75, 395.03 816.71, 395.02 813.98 C 395.00 811.26, 395.00 806.22, 395.00 803.49 C 395.00 800.75, 395.00 795.71, 395.00 792.98 C 395.00 790.25, 395.00 785.21, 395.00 782.48 C 395.00 779.74, 395.00 774.70, 395.00 771.97 C 395.00 769.24, 395.00 768.29, 395.00 761.46 C 395.00 754.64, 395.00 726.27, 395.00 719.44 C 395.00 712.61, 395.00 711.67, 395.00 708.94 C 395.00 706.21, 395.00 718.92, 395.00 698.43 C 395.00 677.95, 395.00 571.84, 395.00 551.36 C 395.00 530.87, 395.00 543.58, 395.00 540.85 C 395.00 538.12, 395.00 533.08, 395.00 530.34 C 395.00 527.61, 395.00 522.57, 395.00 519.84 C 395.00 517.11, 395.00 512.07, 395.00 509.33 C 395.00 506.60, 395.00 501.56, 395.00 498.83 C 395.00 496.10, 395.00 491.05, 395.00 488.32 C 395.00 485.59, 395.00 480.55, 395.00 477.82 C 395.00 475.09, 395.00 470.04, 395.00 467.31 C 395.00 464.58, 395.00 459.54, 395.00 456.81 C 395.00 454.08, 395.00 449.03, 395.00 446.30 C 395.00 443.57, 395.00 438.53, 395.00 435.80 C 395.00 433.07, 395.00 428.02, 395.02 425.30 C 395.03 422.57, 395.05 417.54, 395.11 414.83 C 395.18 412.13, 395.32 407.14, 395.51 404.49 C 395.71 401.84, 396.20 397.00, 396.60 394.44 C 396.99 391.87, 397.93 387.21, 398.56 384.74 C 399.19 382.27, 400.57 377.80, 401.44 375.43 C 402.31 373.06, 404.15 368.78, 405.27 366.51 C 406.39 364.25, 408.68 360.15, 410.06 358.00 C 411.44 355.85, 414.24 351.98, 415.87 349.96 C 417.50 347.94, 420.74 344.32, 422.59 342.48 C 424.43 340.63, 428.05 337.39, 430.06 335.77 C 432.08 334.14, 435.96 331.34, 438.11 329.97 C 440.27 328.61, 444.38 326.34, 446.65 325.24 C 448.93 324.14, 453.23 322.36, 455.61 321.52 C 458.00 320.68, 462.49 319.35, 464.98 318.78 C 467.48 318.20, 472.19 317.42, 474.79 317.10 C 477.39 316.78, 482.30 316.45, 484.97 316.31 C 487.65 316.18, 492.66 316.10, 495.37 316.06 C 498.09 316.02, 503.13 316.02, 505.86 316.01 C 508.59 316.00, 513.63 316.00, 516.36 316.00 C 519.09 316.00, 524.13 316.00, 526.86 316.00 C 529.60 316.00, 534.64 316.00, 537.37 316.00 C 540.10 316.00, 545.14 316.00, 547.88 316.00 C 550.61 316.00, 540.63 316.00, 558.38 316.00 C 576.14 316.00, 666.69 316.00, 684.45 316.00 C 702.20 316.00, 692.22 316.00, 694.95 316.00 C 697.68 316.00, 702.73 316.00, 705.46 316.00 C 708.19 316.00, 713.23 316.00, 715.96 316.00 C 718.69 316.00, 723.74 316.00, 726.47 316.00 C 729.20 316.00, 734.25 316.00, 736.96 316.01 C 739.68 316.03, 744.73 316.02, 747.36 316.13 C 749.98 316.24, 754.68 316.61, 757.18 316.85 C 759.68 317.10, 765.01 316.80, 766.58 318.01 C 768.14 319.23, 768.69 323.93, 769.21 326.19 C 769.74 328.45, 770.41 332.87, 770.64 335.40 C 770.87 337.92, 770.91 342.94, 770.97 345.63 C 771.03 348.31, 771.04 353.35, 771.11 356.05 C 771.18 358.75, 771.33 363.73, 771.53 366.38 C 771.74 369.03, 772.26 373.86, 772.67 376.42 C 773.08 378.98, 774.06 383.61, 774.69 386.09 C 775.32 388.56, 776.68 393.04, 777.51 395.42 C 778.34 397.81, 780.07 402.14, 781.10 404.44 C 782.13 406.74, 784.21 410.92, 785.44 413.15 C 786.66 415.37, 789.09 419.41, 790.51 421.55 C 791.93 423.69, 794.74 427.57, 796.37 429.62 C 797.99 431.67, 801.18 435.38, 802.99 437.33 C 804.79 439.28, 808.29 442.78, 810.23 444.60 C 812.17 446.41, 815.87 449.63, 817.92 451.27 C 819.96 452.91, 823.81 455.78, 825.94 457.23 C 828.07 458.67, 832.09 461.15, 834.31 462.39 C 836.53 463.63, 840.71 465.70, 843.01 466.75 C 845.30 467.80, 849.60 469.60, 851.98 470.46 C 854.35 471.33, 858.80 472.75, 861.27 473.40 C 863.73 474.05, 868.37 475.03, 870.91 475.47 C 873.46 475.91, 878.25 476.52, 880.87 476.79 C 883.49 477.07, 888.38 477.43, 891.05 477.58 C 893.72 477.72, 898.71 477.85, 901.42 477.90 C 904.13 477.95, 909.17 477.97, 911.89 477.99 C 914.62 478.00, 919.66 478.00, 922.39 478.00 C 925.12 478.00, 930.17 478.00, 932.90 478.00 C 935.63 478.00, 940.67 478.00, 943.40 478.00 C 946.14 478.00, 951.18 478.00, 953.91 478.00 C 956.64 478.00, 961.68 478.00, 964.41 478.00 C 967.15 478.00, 972.19 478.00, 974.92 478.00 C 977.65 478.00, 982.69 478.00, 985.42 478.00 C 988.16 478.00, 993.20 478.00, 995.92 477.99 C 998.64 477.98, 1003.69 477.99, 1006.34 477.90 C 1008.98 477.81, 1013.74 477.52, 1016.27 477.32 C 1018.80 477.13, 1023.96 477.28, 1025.77 476.38 C 1027.59 475.48, 1029.78 472.36, 1030.22 470.42 C 1030.65 468.48, 1029.53 463.80, 1029.15 461.44 C 1028.77 459.08, 1027.95 454.67, 1027.29 452.30 C 1026.63 449.93, 1025.07 445.53, 1024.09 443.21 C 1023.11 440.90, 1021.01 436.72, 1019.77 434.51 C 1018.53 432.29, 1016.00 428.29, 1014.54 426.17 C 1013.08 424.04, 1010.19 420.19, 1008.55 418.14 C 1006.91 416.09, 1003.68 412.38, 1001.89 410.40 C 1000.10 408.41, 996.63 404.80, 994.75 402.85 C 992.87 400.90, 989.32 397.32, 987.43 395.38 C 985.53 393.44, 982.03 389.86, 980.16 387.93 C 978.29 385.99, 974.90 382.42, 973.06 380.50 C 971.22 378.58, 967.85 375.06, 965.99 373.15 C 964.13 371.23, 960.64 367.70, 958.74 365.78 C 956.84 363.85, 953.28 360.29, 951.36 358.37 C 949.44 356.44, 945.87 352.87, 943.94 350.94 C 942.01 349.01, 938.44 345.44, 936.51 343.51 C 934.58 341.58, 931.02 338.02, 929.08 336.08 C 927.15 334.15, 923.59 330.59, 921.66 328.66 C 919.74 326.73, 916.18 323.18, 914.27 321.26 C 912.36 319.34, 908.86 315.81, 906.98 313.90 C 905.11 311.99, 901.72 308.49, 899.88 306.57 C 898.03 304.64, 894.67 301.06, 892.81 299.12 C 890.95 297.18, 887.47 293.59, 885.57 291.65 C 883.67 289.71, 880.12 286.14, 878.20 284.21 C 876.27 282.28, 872.71 278.71, 870.78 276.78 C 868.85 274.85, 865.28 271.28, 863.35 269.35 C 861.42 267.42, 857.85 263.85, 855.92 261.92 C 853.99 259.99, 850.43 256.42, 848.50 254.49 C 846.58 252.55, 843.03 248.98, 841.12 247.04 C 839.22 245.10, 835.73 241.50, 833.85 239.55 C 831.98 237.59, 828.57 233.96, 826.70 232.00 C 824.82 230.05, 821.33 226.45, 819.43 224.51 C 817.52 222.57, 813.97 219.00, 812.05 217.06 C 810.12 215.13, 806.56 211.56, 804.63 209.63 C 802.70 207.70, 799.13 204.13, 797.20 202.20 C 795.27 200.27, 791.70 196.71, 789.76 194.80 C 787.82 192.89, 784.24 189.35, 782.27 187.52 C 780.30 185.69, 776.64 182.35, 774.58 180.73 C 772.52 179.11, 768.62 176.34, 766.43 175.05 C 764.23 173.76, 760.03 171.73, 757.67 170.82 C 755.32 169.91, 750.83 168.58, 748.32 168.03 C 745.82 167.49, 741.03 166.86, 738.40 166.62 C 735.77 166.37, 730.80 166.21, 728.10 166.13 C 725.40 166.05, 720.36 166.03, 717.64 166.02 C 714.91 166.00, 709.87 166.00, 707.14 166.00 C 704.41 166.00, 699.37 166.00, 696.64 166.00 C 693.90 166.00, 688.86 166.00, 686.13 166.00 C 683.40 166.00, 678.36 166.00, 675.62 166.00 C 672.89 166.00, 667.85 166.00, 665.12 166.00 C 662.39 166.00, 657.35 166.00, 654.61 166.00 C 651.88 166.00, 646.84 166.00, 644.11 166.00 C 641.38 166.00, 636.33 166.00, 633.60 166.00 C 630.87 166.00, 625.83 166.00, 623.10 166.00 C 620.37 166.00, 615.32 166.00, 612.59 166.00 C 609.86 166.00, 604.82 166.00, 602.09 166.00 C 599.36 166.00, 594.31 166.00, 591.58 166.00 C 588.85 166.00, 583.81 166.00, 581.08 166.00 C 578.34 166.00, 573.30 166.00, 570.57 166.00 C 567.84 166.00, 562.80 166.00, 560.07 166.00 C 557.33 166.00, 552.29 166.00, 549.56 166.00 C 546.83 166.00, 541.79 166.00, 539.05 166.00 C 536.32 166.00, 531.28 166.00, 528.55 166.00 C 525.82 166.00, 520.77 166.00, 518.04 166.00 C 515.31 166.00, 510.27 166.00, 507.54 166.00 C 504.81 166.00, 499.76 166.00, 497.03 166.00 C 494.30 166.00, 489.26 166.00, 486.53 166.00 C 483.80 166.00, 478.75 166.00, 476.02 166.00 C 473.29 166.00, 468.25 166.00, 465.52 166.00 C 462.79 166.00, 457.74 166.00, 455.02 166.02 C 452.29 166.03, 447.26 166.05, 444.55 166.12 C 441.85 166.18, 436.87 166.33, 434.21 166.52 Z
    M 611.87 391.21 C 611.75 390.30, 611.24 394.61, 611.12 396.11 C 611.01 397.61, 611.05 400.99, 611.00 402.73 C 610.95 404.48, 610.87 406.85, 610.71 409.50 C 610.55 412.15, 610.02 419.58, 609.77 423.12 C 609.52 426.66, 609.04 433.19, 608.77 436.72 C 608.50 440.26, 607.94 447.67, 607.71 450.30 C 607.47 452.94, 607.16 455.26, 606.94 456.99 C 606.71 458.72, 606.51 460.18, 605.99 463.61 C 605.48 467.04, 603.51 479.96, 602.97 483.38 C 602.43 486.80, 602.16 488.23, 601.84 489.92 C 601.51 491.61, 600.85 494.70, 600.46 496.36 C 600.07 498.02, 599.29 501.06, 598.83 502.70 C 598.38 504.33, 597.46 507.31, 596.95 508.92 C 596.43 510.53, 595.45 513.49, 594.88 515.07 C 594.30 516.66, 593.20 519.57, 592.55 521.12 C 591.91 522.68, 590.62 525.51, 589.89 527.03 C 589.17 528.55, 587.77 531.33, 586.95 532.82 C 586.14 534.30, 584.58 537.02, 583.65 538.45 C 582.73 539.89, 580.88 542.48, 579.84 543.85 C 578.79 545.21, 576.75 547.66, 575.60 548.93 C 574.44 550.20, 572.22 552.43, 570.96 553.60 C 569.70 554.76, 567.26 556.84, 565.91 557.92 C 564.57 559.01, 562.02 560.98, 560.62 561.96 C 559.21 562.95, 556.56 564.68, 555.09 565.54 C 553.62 566.39, 550.86 567.84, 549.33 568.54 C 547.80 569.25, 545.68 570.07, 543.32 570.95 C 540.95 571.83, 533.51 574.53, 531.11 575.33 C 528.72 576.14, 526.50 576.71, 524.86 577.16 C 523.22 577.61, 521.01 578.19, 518.52 578.78 C 516.03 579.37, 508.23 581.17, 505.72 581.71 C 503.21 582.25, 500.92 582.64, 499.22 582.93 C 497.51 583.22, 494.35 583.70, 492.62 583.93 C 490.89 584.16, 488.57 584.47, 485.93 584.71 C 483.30 584.94, 475.89 585.51, 472.36 585.77 C 468.82 586.03, 461.39 586.55, 458.74 586.71 C 456.09 586.86, 453.70 586.91, 451.95 586.95 C 450.20 587.00, 446.83 587.00, 445.29 587.04 C 443.75 587.08, 440.20 587.15, 440.13 587.26 C 440.06 587.38, 443.29 587.79, 444.74 587.91 C 446.19 588.04, 447.78 587.99, 451.27 588.20 C 454.76 588.42, 468.05 589.33, 471.56 589.58 C 475.08 589.84, 476.58 590.00, 478.33 590.18 C 480.07 590.36, 483.27 590.76, 485.01 590.98 C 486.74 591.20, 489.07 591.49, 491.64 591.87 C 494.22 592.26, 502.25 593.52, 504.81 593.93 C 507.37 594.34, 509.67 594.72, 511.36 595.04 C 513.05 595.35, 516.17 595.95, 517.82 596.35 C 519.48 596.74, 522.49 597.60, 524.12 598.07 C 525.74 598.55, 528.72 599.50, 530.32 600.02 C 531.93 600.53, 534.90 601.50, 536.49 602.05 C 538.08 602.60, 541.02 603.63, 542.59 604.24 C 544.16 604.86, 547.02 606.08, 548.54 606.80 C 550.06 607.52, 552.84 608.93, 554.31 609.78 C 555.79 610.63, 558.45 612.33, 559.86 613.31 C 561.27 614.29, 563.83 616.26, 565.19 617.36 C 566.55 618.46, 569.03 620.57, 570.33 621.77 C 571.63 622.98, 573.96 625.31, 575.16 626.61 C 576.36 627.91, 578.47 630.39, 579.55 631.76 C 580.64 633.13, 582.55 635.70, 583.50 637.13 C 584.46 638.55, 586.05 641.26, 586.89 642.73 C 587.72 644.21, 589.17 646.97, 589.94 648.48 C 590.70 649.99, 592.06 652.78, 592.76 654.32 C 593.46 655.85, 594.67 658.71, 595.30 660.28 C 595.93 661.84, 597.06 664.73, 597.60 666.33 C 598.14 667.93, 598.80 670.11, 599.46 672.57 C 600.12 675.03, 602.10 682.76, 602.68 685.25 C 603.26 687.75, 603.63 690.05, 603.93 691.74 C 604.23 693.44, 604.46 694.89, 604.99 698.31 C 605.52 701.74, 607.48 714.67, 607.99 718.10 C 608.50 721.53, 608.71 722.99, 608.94 724.72 C 609.16 726.44, 609.47 728.78, 609.71 731.40 C 609.94 734.02, 610.57 742.26, 610.75 744.87 C 610.93 747.47, 610.95 749.92, 611.07 751.44 C 611.18 752.96, 611.41 757.29, 611.63 756.54 C 611.85 755.78, 612.54 747.91, 612.75 745.63 C 612.96 743.35, 613.03 741.60, 613.23 738.98 C 613.43 736.35, 614.06 728.05, 614.29 725.42 C 614.53 722.78, 614.59 722.17, 615.06 718.73 C 615.53 715.28, 617.46 702.34, 617.91 698.89 C 618.36 695.45, 618.46 693.96, 618.51 692.23 C 618.57 690.49, 618.60 688.11, 618.34 685.52 C 618.09 682.94, 617.01 674.87, 616.58 672.36 C 616.15 669.85, 615.92 668.45, 615.04 666.22 C 614.15 663.98, 610.70 657.38, 609.75 655.15 C 608.80 652.93, 608.26 650.66, 607.70 649.09 C 607.14 647.51, 606.10 644.58, 605.45 643.03 C 604.79 641.49, 603.38 638.70, 602.68 637.18 C 601.97 635.66, 600.74 632.81, 600.02 631.31 C 599.31 629.81, 598.03 627.04, 597.18 625.65 C 596.33 624.27, 594.50 621.89, 593.48 620.66 C 592.45 619.42, 590.40 617.30, 589.31 616.15 C 588.22 614.99, 586.08 613.04, 585.11 611.79 C 584.14 610.55, 582.68 607.97, 581.83 606.59 C 580.98 605.20, 579.52 602.48, 578.57 601.14 C 577.63 599.81, 575.71 597.42, 574.57 596.32 C 573.44 595.22, 571.11 593.54, 569.84 592.66 C 568.57 591.78, 565.46 590.43, 564.82 589.58 C 564.18 588.72, 564.23 586.94, 564.90 586.07 C 565.57 585.20, 568.64 583.75, 569.95 582.87 C 571.25 581.98, 573.70 580.31, 574.95 579.27 C 576.20 578.24, 578.49 576.12, 579.60 574.89 C 580.70 573.67, 582.38 571.10, 583.43 569.83 C 584.47 568.57, 586.43 566.27, 587.60 565.19 C 588.78 564.10, 591.24 562.49, 592.47 561.50 C 593.70 560.51, 595.92 558.66, 597.07 557.55 C 598.22 556.44, 600.26 554.21, 601.32 552.96 C 602.37 551.71, 604.18 549.26, 605.15 547.94 C 606.12 546.63, 607.81 543.87, 608.77 542.86 C 609.73 541.84, 611.13 539.25, 612.52 540.13 C 613.92 541.01, 618.08 547.75, 619.52 549.62 C 620.97 551.48, 622.50 553.26, 623.64 554.46 C 624.77 555.67, 627.01 557.82, 628.27 558.88 C 629.52 559.95, 632.06 561.60, 633.29 562.66 C 634.52 563.71, 636.66 565.78, 637.72 566.99 C 638.79 568.20, 640.44 570.72, 641.48 571.97 C 642.51 573.22, 644.47 575.51, 645.68 576.61 C 646.88 577.71, 649.39 579.53, 650.74 580.42 C 652.10 581.30, 654.71 582.67, 656.10 583.40 C 657.49 584.13, 660.61 585.33, 661.44 586.05 C 662.27 586.78, 662.98 588.19, 662.51 588.97 C 662.03 589.75, 658.98 591.16, 657.78 592.06 C 656.59 592.95, 654.03 594.60, 653.30 595.84 C 652.56 597.09, 651.79 600.28, 652.13 601.61 C 652.47 602.94, 654.69 605.20, 655.90 606.05 C 657.11 606.89, 660.00 607.78, 661.46 608.09 C 662.92 608.41, 665.65 608.63, 667.15 608.46 C 668.65 608.29, 671.46 607.32, 672.99 606.79 C 674.51 606.27, 677.35 605.01, 678.90 604.40 C 680.46 603.79, 683.37 602.68, 684.95 602.12 C 686.54 601.55, 689.50 600.57, 691.11 600.05 C 692.71 599.54, 695.70 598.62, 697.33 598.16 C 698.96 597.70, 702.00 596.90, 703.65 596.49 C 705.30 596.09, 708.38 595.38, 710.04 595.01 C 711.71 594.63, 714.79 593.95, 716.47 593.61 C 718.16 593.27, 721.27 592.67, 722.98 592.40 C 724.69 592.13, 727.89 591.74, 729.63 591.53 C 731.37 591.33, 733.73 591.12, 736.35 590.83 C 738.96 590.54, 746.22 589.62, 749.73 589.29 C 753.23 588.96, 760.67 588.45, 763.32 588.29 C 765.98 588.13, 767.67 588.11, 770.13 588.06 C 772.59 588.00, 781.14 587.99, 782.23 587.87 C 783.31 587.75, 779.80 587.24, 778.46 587.13 C 777.12 587.02, 773.64 587.06, 771.92 587.02 C 770.20 586.98, 766.97 586.88, 765.21 586.80 C 763.45 586.72, 761.92 586.66, 758.39 586.39 C 754.86 586.12, 741.58 585.01, 738.07 584.69 C 734.56 584.37, 733.11 584.15, 731.38 583.92 C 729.65 583.70, 726.48 583.23, 724.77 582.97 C 723.06 582.70, 719.91 582.18, 718.21 581.88 C 716.51 581.58, 713.40 580.97, 711.72 580.63 C 710.04 580.29, 706.94 579.64, 705.28 579.26 C 703.61 578.88, 700.54 578.17, 698.91 577.72 C 697.27 577.27, 694.29 576.35, 692.68 575.82 C 691.08 575.29, 688.16 574.21, 686.58 573.63 C 685.00 573.04, 682.09 571.95, 680.53 571.32 C 678.97 570.68, 676.11 569.46, 674.59 568.73 C 673.07 568.00, 670.31 566.55, 668.84 565.70 C 667.37 564.85, 664.71 563.16, 663.28 562.21 C 661.85 561.26, 659.23 559.46, 657.85 558.42 C 656.47 557.37, 653.95 555.32, 652.65 554.14 C 651.35 552.96, 649.02 550.63, 647.84 549.33 C 646.66 548.02, 644.62 545.51, 643.58 544.13 C 642.54 542.74, 640.76 540.11, 639.83 538.67 C 638.90 537.24, 637.28 534.55, 636.44 533.07 C 635.61 531.59, 634.18 528.82, 633.43 527.31 C 632.68 525.80, 631.35 522.98, 630.69 521.44 C 630.02 519.89, 628.86 517.01, 628.28 515.42 C 627.70 513.84, 626.75 510.87, 626.24 509.26 C 625.74 507.64, 625.05 505.48, 624.43 503.00 C 623.80 500.53, 621.99 492.73, 621.43 490.23 C 620.87 487.73, 620.44 485.45, 620.13 483.76 C 619.82 482.06, 619.43 479.77, 619.02 477.20 C 618.62 474.64, 617.39 466.60, 617.01 464.02 C 616.62 461.45, 616.29 459.13, 616.06 457.40 C 615.84 455.67, 615.53 453.35, 615.29 450.71 C 615.06 448.08, 614.50 440.67, 614.23 437.14 C 613.96 433.60, 613.48 427.07, 613.23 423.53 C 612.98 420.00, 612.45 412.57, 612.29 409.92 C 612.14 407.26, 612.11 405.55, 612.06 403.12 C 612.00 400.69, 611.99 392.12, 611.87 391.21 Z"
    fill="url(#mainGradient)"
    fill-rule="evenodd"
    />

  <!-- Internal light, clipped strictly to the exact original outline. -->
  <g clip-path="url(#logoClip)" opacity="0.75">
    <rect width="1254" height="1254" fill="url(#centerGlow)"/>
  </g>

  <!-- Very subtle gloss, also clipped strictly to the original outline. -->
  <g clip-path="url(#logoClip)" opacity="0.48">
    <rect width="1254" height="1254" fill="url(#subtleGloss)"/>
  </g>

  <!-- Stronger sparkle-only glow.
       This is intentionally round/soft and does not run down the pen slit. -->
  <g id="spark-edge-dissolve-glow">
    <!-- Broad soft white-violet halo to dissolve the jagged inner edge. -->
    <ellipse
      cx="610"
      cy="585"
      rx="230"
      ry="215"
      fill="url(#sparkEdgeDissolveGlow)"
      filter="url(#sparkEdgeHeavyBlur)"
      opacity="0.96"/>

    <!-- Additional compact white core, stronger than the previous version. -->
    <ellipse
      cx="610"
      cy="585"
      rx="112"
      ry="104"
      fill="#FFFFFF"
      filter="url(#sparkEdgeMediumBlur)"
      opacity="0.54"/>

    <!-- Bright center only; kept small so it does not turn into a pen-line glow. -->
    <circle
      cx="610"
      cy="585"
      r="32"
      fill="#FFFFFF"
      filter="url(#sparkEdgeMediumBlur)"
      opacity="0.92"/>
    <circle
      cx="610"
      cy="585"
      r="13"
      fill="#FFFFFF"
      opacity="1"/>
  </g>

</svg>
